<svg width="28" height="29" viewBox="0 0 28 29" fill="none" xmlns="http://www.w3.org/2000/svg">
<g opacity="0.76">
<path d="M14.0001 18.5461C16.1089 18.5461 17.8184 16.8366 17.8184 14.7278C17.8184 12.619 16.1089 10.9095 14.0001 10.9095C11.8913 10.9095 10.1818 12.619 10.1818 14.7278C10.1818 16.8366 11.8913 18.5461 14.0001 18.5461Z" stroke="black" stroke-width="2.325"/>
<path d="M16.2465 2.19346C15.7793 2 15.1862 2 14 2C12.8138 2 12.2207 2 11.7535 2.19346C11.4445 2.32139 11.1637 2.50898 10.9272 2.7455C10.6906 2.98201 10.5031 3.26283 10.3751 3.57188C10.258 3.85571 10.2109 4.18791 10.1931 4.67029C10.1852 5.01902 10.0887 5.36001 9.91287 5.66124C9.73698 5.96247 9.48742 6.21405 9.18762 6.39236C8.8833 6.56297 8.54059 6.65341 8.19171 6.65519C7.84283 6.65697 7.49923 6.57004 7.19318 6.40254C6.76552 6.17599 6.45624 6.05126 6.1495 6.01053C5.48042 5.92254 4.80379 6.10383 4.26833 6.51455C3.86868 6.82383 3.57085 7.33676 2.97773 8.3639C2.38461 9.39103 2.08678 9.90396 2.02187 10.4067C1.97813 10.7382 2.00013 11.0751 2.08661 11.3981C2.1731 11.7211 2.32236 12.0239 2.52589 12.2891C2.71426 12.5335 2.97773 12.7384 3.38629 12.9955C3.98832 13.3736 4.37524 14.0176 4.37524 14.7278C4.37524 15.438 3.98832 16.082 3.38629 16.4588C2.97773 16.7171 2.71299 16.9221 2.52589 17.1664C2.32236 17.4317 2.1731 17.7345 2.08661 18.0575C2.00013 18.3805 1.97813 18.7174 2.02187 19.0489C2.08806 19.5504 2.38461 20.0646 2.97646 21.0917C3.57085 22.1188 3.8674 22.6318 4.26833 22.941C4.53362 23.1446 4.83641 23.2938 5.15941 23.3803C5.4824 23.4668 5.81927 23.4888 6.15077 23.4451C6.45624 23.4043 6.76552 23.2796 7.19318 23.053C7.49923 22.8856 7.84283 22.7986 8.19171 22.8004C8.54059 22.8022 8.8833 22.8926 9.18762 23.0632C9.80237 23.4196 10.1677 24.0751 10.1931 24.7853C10.2109 25.269 10.2568 25.5999 10.3751 25.8837C10.5031 26.1928 10.6906 26.4736 10.9272 26.7101C11.1637 26.9466 11.4445 27.1342 11.7535 27.2621C12.2207 27.4556 12.8138 27.4556 14 27.4556C15.1862 27.4556 15.7793 27.4556 16.2465 27.2621C16.5555 27.1342 16.8363 26.9466 17.0728 26.7101C17.3094 26.4736 17.4969 26.1928 17.6249 25.8837C17.742 25.5999 17.7891 25.269 17.8069 24.7853C17.8323 24.0751 18.1976 23.4183 18.8124 23.0632C19.1167 22.8926 19.4594 22.8022 19.8083 22.8004C20.1572 22.7986 20.5008 22.8856 20.8068 23.053C21.2345 23.2796 21.5438 23.4043 21.8492 23.4451C22.1807 23.4888 22.5176 23.4668 22.8406 23.3803C23.1636 23.2938 23.4664 23.1446 23.7317 22.941C24.1326 22.633 24.4292 22.1188 25.0223 21.0917C25.6154 20.0646 25.9132 19.5516 25.9781 19.0489C26.0219 18.7174 25.9999 18.3805 25.9134 18.0575C25.8269 17.7345 25.6776 17.4317 25.4741 17.1664C25.2857 16.9221 25.0223 16.7172 24.6137 16.46C24.3155 16.2788 24.0683 16.0248 23.8953 15.7217C23.7224 15.4187 23.6292 15.0767 23.6248 14.7278C23.6248 14.0176 24.0117 13.3736 24.6137 12.9968C25.0223 12.7384 25.287 12.5335 25.4741 12.2891C25.6776 12.0239 25.8269 11.7211 25.9134 11.3981C25.9999 11.0751 26.0219 10.7382 25.9781 10.4067C25.9119 9.90523 25.6154 9.39103 25.0235 8.3639C24.4292 7.33676 24.1326 6.82383 23.7317 6.51455C23.4664 6.31102 23.1636 6.16175 22.8406 6.07527C22.5176 5.98879 22.1807 5.96679 21.8492 6.01053C21.5438 6.05126 21.2345 6.17599 20.8056 6.40254C20.4997 6.56981 20.1563 6.65662 19.8077 6.65484C19.459 6.65306 19.1165 6.56274 18.8124 6.39236C18.5126 6.21405 18.263 5.96247 18.0871 5.66124C17.9113 5.36001 17.8148 5.01902 17.8069 4.67029C17.7891 4.18664 17.7432 3.85571 17.6249 3.57188C17.4969 3.26283 17.3094 2.98201 17.0728 2.7455C16.8363 2.50898 16.5555 2.32139 16.2465 2.19346Z" stroke="black" stroke-width="2.325"/>
</g>
</svg>
