<svg width="76" height="63" viewBox="0 0 76 63" fill="none" xmlns="http://www.w3.org/2000/svg">
<g clip-path="url(#clip0_302_1233)">
<rect width="76" height="63" fill="#FAF4F4"/>
<path d="M41 35.54C41 46.0334 32.4934 54.54 22 54.54C11.5066 54.54 3 46.0334 3 35.54C3 25.0465 17 12 22 8.03996C22 7.03995 41 25.0465 41 35.54Z" fill="#FF5B56"/>
<path d="M46.2894 11.5466L46.3017 11.5448C48.0943 11.2865 49.7361 12.1582 50.9294 13.3959C52.1382 14.6495 53.0465 16.4198 53.4492 18.4097L46.2894 11.5466ZM46.2894 11.5466L46.2771 11.5485M46.2894 11.5466L46.2771 11.5485M46.2771 11.5485C44.4606 11.841 43.2052 13.1827 42.5451 14.7546C41.8833 16.3307 41.7346 18.2862 42.1488 20.2683M46.2771 11.5485L42.1488 20.2683M60.7437 11.5466L60.7541 11.5482C62.5799 11.8397 63.8361 13.1802 64.4994 14.7523C65.1633 16.3261 65.3173 18.2773 64.9266 20.2529L64.9244 20.264L64.9221 20.2751C64.4985 22.2594 63.5808 24.0268 62.3672 25.2762C61.1694 26.5094 59.5239 27.3783 57.727 27.1045M60.7437 11.5466L57.9522 25.6215M60.7437 11.5466L60.7333 11.545C58.9459 11.2853 57.3079 12.1617 56.1196 13.3972C54.9151 14.6496 54.0073 16.4179 53.6042 18.4064M60.7437 11.5466L55.0735 18.7086M57.727 27.1045C57.7266 27.1045 57.7263 27.1044 57.726 27.1044L57.9522 25.6215M57.727 27.1045C57.7273 27.1046 57.7276 27.1046 57.7279 27.1047L57.9522 25.6215M57.727 27.1045C55.8918 26.8266 54.6354 25.4832 53.9817 23.9075C53.7762 23.4123 53.6219 22.8796 53.5198 22.3207M57.9522 25.6215C55.6218 25.269 54.3489 22.1749 55.0735 18.7086M53.5198 22.3207C53.7214 21.228 53.7258 20.0345 53.5254 18.8228M53.5198 22.3207C53.3199 21.2276 53.3195 20.034 53.5254 18.8228M53.5198 22.3207C53.4166 22.8798 53.2618 23.4124 53.0564 23.9075C52.405 25.4777 51.1562 26.8252 49.327 27.1044C49.3275 27.1043 49.3281 27.1042 49.3286 27.1041L53.4495 18.4113C53.4775 18.5486 53.5027 18.6858 53.5254 18.8228M53.5254 18.8228C53.549 18.6842 53.5752 18.5453 53.6042 18.4064M53.6042 18.4064C53.6039 18.408 53.6036 18.4096 53.6032 18.4113L55.0735 18.7086M53.6042 18.4064C53.6046 18.4048 53.6049 18.4033 53.6052 18.4017L55.0735 18.7086M42.1488 20.2683C42.5626 22.258 43.4819 24.0269 44.6954 25.2762C45.8908 26.507 47.5367 27.379 49.3268 27.1044L42.1488 20.2683ZM35.4461 20.6597L35.4461 20.6597L35.4386 20.663C33.7685 21.3917 32.8618 22.9692 32.592 24.6408C32.3219 26.3139 32.6481 28.2183 33.5431 29.997C34.436 31.7714 35.7735 33.2031 37.2804 34.0591C38.7764 34.9088 40.5896 35.2598 42.2556 34.5373C43.9484 33.8033 44.8664 32.2333 45.1437 30.5537C45.4198 28.8816 45.0993 26.9836 44.2444 25.2063L44.2336 25.1839L44.2221 25.1618C43.3081 23.413 41.9573 21.9931 40.4432 21.1416C38.9408 20.2967 37.1214 19.9396 35.4461 20.6597ZM71.8884 20.663L71.8808 20.6597C70.2055 19.9396 68.3862 20.2967 66.8838 21.1416C65.3697 21.9931 64.0188 23.413 63.1049 25.1618L63.0934 25.1839L63.0826 25.2063C62.2277 26.9836 61.9072 28.8816 62.1833 30.5537C62.4606 32.2333 63.3786 33.8033 65.0713 34.5373C66.7374 35.2598 68.5505 34.9088 70.0465 34.0591C71.5534 33.2031 72.891 31.7714 73.7838 29.997C74.6788 28.2183 75.005 26.3139 74.735 24.6408C74.4652 22.9692 73.5585 21.3917 71.8884 20.663ZM69.5167 43.0849L69.5167 43.0843C69.4231 40.9063 68.1392 39.259 66.8788 37.991C66.3165 37.4251 65.7025 36.8813 65.1341 36.3779C65.0569 36.3095 64.9805 36.2418 64.9052 36.175C64.2558 35.5982 63.6771 35.0721 63.1938 34.5408L63.188 34.5345L63.1821 34.5282C62.5953 33.8978 62.0205 33.1194 61.3909 32.2381C61.3058 32.119 61.2197 31.9979 61.1324 31.8753C60.5939 31.1184 60.0143 30.3038 59.4034 29.5589C58.0137 27.8643 56.1267 26.0995 53.4481 26.0995C50.7466 26.0995 48.882 27.9015 47.5126 29.5969C46.9746 30.263 46.4528 30.9919 45.964 31.6748C45.82 31.8759 45.6789 32.073 45.5411 32.2634C44.9116 33.1328 44.3308 33.8904 43.7316 34.4896L43.7242 34.497L43.7169 34.5045C43.3271 34.9054 42.9482 35.462 42.8993 36.175C42.8481 36.922 43.1796 37.5007 43.5089 37.8781C43.8227 38.2377 44.2147 38.512 44.5433 38.7167C44.8828 38.928 45.2618 39.1289 45.5983 39.3071C46.3349 39.697 46.9054 40.0043 47.2963 40.3465C47.5276 40.5488 47.5933 40.6711 47.6097 40.7432C47.5884 40.7741 47.5544 40.8197 47.5021 40.8803C47.3286 41.0817 47.0524 41.3359 46.6665 41.6399C45.9408 42.2117 45.0104 42.8192 44.0488 43.4471C43.9849 43.4888 43.9208 43.5306 43.8567 43.5725C42.8893 44.2046 41.8331 44.8984 41.1598 45.5168C40.8682 45.7847 40.3879 46.2624 40.2068 46.899C40.0965 47.2869 40.0833 47.7879 40.3417 48.2781C40.5796 48.7295 40.9519 48.9874 41.2435 49.132C43.5685 50.3039 46.0294 49.6506 47.9819 49.0062C48.4129 48.864 48.8091 48.7254 49.1919 48.5914C49.7729 48.3881 50.3228 48.1956 50.9165 48.0179C51.8533 47.7375 52.6854 47.5665 53.4481 47.5665C54.2186 47.5665 55.0536 47.7323 55.9876 48.0025C56.5877 48.1761 57.1495 48.367 57.743 48.5685C58.1148 48.6948 58.4989 48.8252 58.9127 48.9583C60.8664 49.5869 63.2962 50.22 65.6243 49.1548C66.7607 48.6388 67.7384 47.7323 68.4214 46.7018C69.103 45.6733 69.5725 44.3962 69.5167 43.0849ZM47.6114 40.8201C47.612 40.8152 47.6126 40.8105 47.6133 40.8059C47.6129 40.809 47.6125 40.8119 47.6121 40.8145C47.6118 40.8165 47.6116 40.8184 47.6114 40.8201Z" fill="#FF5B56" stroke="#FAF4F4" stroke-width="3"/>
<path d="M52.4852 26.8954L53.5 25.9631L54.5148 26.8954L56.4702 28.6918L56.4723 28.6938L56.5104 28.7286C59.9403 31.8674 62.9072 34.5824 65.0016 37.1683C67.1211 39.7852 68.5 42.45 68.5 45.5068C68.5 50.5339 64.5725 54.5 59.575 54.5C57.3252 54.5 55.1665 53.6581 53.5 52.2683C51.8335 53.6581 49.6748 54.5 47.425 54.5C42.4275 54.5 38.5 50.5339 38.5 45.5068C38.5 42.45 39.8789 39.7852 41.9984 37.1683C44.0928 34.5824 47.0597 31.8674 50.4896 28.7286L50.5277 28.6938L50.5298 28.6918L52.4852 26.8954Z" fill="#FF5B56" stroke="#FAF4F4" stroke-width="3"/>
</g>
<defs>
<clipPath id="clip0_302_1233">
<rect width="76" height="63" fill="white"/>
</clipPath>
</defs>
</svg>
