<svg width="228" height="69" viewBox="0 0 228 69" fill="none" xmlns="http://www.w3.org/2000/svg">
<path d="M36.2596 28.2007C36.2596 17.5987 44.8437 9 55.4276 9C66.0114 9 74.5953 17.5987 74.5953 28.2007C74.5953 41.0525 63.55 45.9527 56.1351 55.5376C55.9198 55.8151 55.7352 55.9692 55.4276 55.9692C55.1198 55.9692 54.9352 55.7842 54.7198 55.5376C47.305 45.922 36.2596 41.0525 36.2596 28.2007ZM33.3368 28.2007C33.3368 24.5024 34.2598 21.0197 35.8597 17.9377C36.075 17.5371 35.9827 17.0131 35.6442 16.7049C33.3059 14.4859 30.9676 12.1436 28.8755 9.46229C28.6602 9.18492 28.4756 9.03082 28.1679 9.03082C27.8602 9.03082 27.6756 9.21574 27.4602 9.46229C20.0761 19.078 9 23.9475 9 36.7993C9 47.4014 17.584 56 28.1679 56C34.1675 56 39.4901 53.2571 42.9976 48.9424C43.3361 48.5417 43.3052 47.9253 42.9053 47.5554C37.8902 42.5319 33.3368 37.0151 33.3368 28.2007ZM85.0562 25.3961H91.9479C93.6094 25.3961 95.117 25.7351 96.4092 26.3824C97.7015 27.0295 98.7168 27.9541 99.4552 29.1561C100.194 30.358 100.532 31.7141 100.532 33.2859C100.532 34.8576 100.163 36.2137 99.4552 37.4158C98.7475 38.6176 97.7322 39.5424 96.4092 40.1895C95.117 40.8368 93.6094 41.1758 91.9479 41.1758H85.0869V25.3961H85.0562ZM91.7942 38.6793C92.9325 38.6793 93.9479 38.4636 94.8401 38.0014C95.7017 37.5698 96.3785 36.9226 96.8707 36.1213C97.3322 35.2892 97.5784 34.3646 97.5784 33.2859C97.5784 32.2073 97.3322 31.2519 96.8707 30.4505C96.4092 29.6183 95.7324 29.002 94.8401 28.5705C93.9479 28.139 92.9633 27.8925 91.7942 27.8925H87.979V38.6793H91.7942ZM105.116 40.4976C104.132 39.9737 103.393 39.2341 102.84 38.3095C102.286 37.3849 102.009 36.3063 102.009 35.1351C102.009 33.9639 102.286 32.8853 102.84 31.9607C103.393 31.0361 104.132 30.2964 105.116 29.7724C106.101 29.2485 107.178 28.9712 108.408 28.9712C109.639 28.9712 110.747 29.2485 111.7 29.7724C112.685 30.2964 113.423 31.0361 113.977 31.9607C114.531 32.8853 114.808 33.9331 114.808 35.1351C114.808 36.3063 114.531 37.3849 113.977 38.3095C113.423 39.2341 112.685 39.9737 111.7 40.4976C110.716 41.0217 109.639 41.299 108.408 41.299C107.178 41.299 106.101 41.0217 105.116 40.4976ZM110.962 37.8473C111.639 37.1692 111.977 36.2446 111.977 35.1351C111.977 34.0256 111.639 33.101 110.962 32.4229C110.285 31.7449 109.424 31.3751 108.408 31.3751C107.362 31.3751 106.532 31.7141 105.855 32.4229C105.178 33.101 104.87 34.0256 104.87 35.1351C104.87 36.2446 105.209 37.1692 105.855 37.8473C106.532 38.5253 107.362 38.8951 108.408 38.8951C109.424 38.8951 110.285 38.5561 110.962 37.8473ZM127.392 30.3273C128.315 31.221 128.776 32.5154 128.776 34.2722V41.1449H125.976V34.6112C125.976 33.5632 125.73 32.762 125.238 32.238C124.746 31.7141 124.038 31.4368 123.115 31.4368C122.069 31.4368 121.269 31.7449 120.654 32.3613C120.069 32.9776 119.761 33.8715 119.761 35.0426V41.1141H116.962V29.0944H119.638V30.6354C120.1 30.0807 120.684 29.6492 121.392 29.3719C122.1 29.0944 122.9 28.9403 123.761 28.9403C125.269 29.002 126.469 29.4334 127.392 30.3273ZM133.883 40.4976C132.899 39.9737 132.161 39.2341 131.607 38.3095C131.053 37.3849 130.776 36.3063 130.776 35.1351C130.776 33.9639 131.053 32.8853 131.607 31.9607C132.161 31.0361 132.899 30.2964 133.883 29.7724C134.868 29.2485 135.945 28.9712 137.176 28.9712C138.406 28.9712 139.514 29.2485 140.468 29.7724C141.452 30.2964 142.191 31.0361 142.744 31.9607C143.298 32.8853 143.575 33.9331 143.575 35.1351C143.575 36.3063 143.298 37.3849 142.744 38.3095C142.191 39.2341 141.452 39.9737 140.468 40.4976C139.483 41.0217 138.406 41.299 137.176 41.299C135.945 41.299 134.868 41.0217 133.883 40.4976ZM139.729 37.8473C140.406 37.1692 140.745 36.2446 140.745 35.1351C140.745 34.0256 140.406 33.101 139.729 32.4229C139.052 31.7449 138.191 31.3751 137.176 31.3751C136.129 31.3751 135.299 31.7141 134.622 32.4229C133.945 33.101 133.637 34.0256 133.637 35.1351C133.637 36.2446 133.976 37.1692 134.622 37.8473C135.299 38.5253 136.129 38.8951 137.176 38.8951C138.191 38.8951 139.052 38.5561 139.729 37.8473ZM152.651 29.002V31.6832C152.405 31.6525 152.19 31.6217 152.005 31.6217C150.898 31.6217 150.067 31.9298 149.452 32.5771C148.836 33.2242 148.529 34.1488 148.529 35.32V41.1449H145.729V29.1253H148.406V30.882C149.175 29.6183 150.59 29.002 152.651 29.002ZM156.405 40.8368C155.267 40.4976 154.374 40.0354 153.728 39.4498L154.744 37.1692C155.39 37.6931 156.19 38.0937 157.113 38.4327C158.036 38.741 158.99 38.9259 159.944 38.9259C161.112 38.9259 161.974 38.741 162.559 38.3712C163.144 38.0014 163.42 37.5081 163.42 36.8919C163.42 36.4295 163.266 36.0597 162.928 35.7824C162.62 35.5049 162.19 35.2583 161.697 35.1042C161.205 34.9502 160.527 34.7653 159.666 34.5495C158.467 34.2722 157.513 33.9947 156.744 33.6866C156.005 33.4092 155.359 32.9469 154.836 32.3613C154.313 31.7449 154.036 30.9436 154.036 29.8958C154.036 29.0327 154.282 28.2315 154.744 27.5226C155.205 26.8137 155.913 26.259 156.866 25.8275C157.82 25.3961 158.99 25.2112 160.375 25.2112C161.328 25.2112 162.281 25.3344 163.204 25.581C164.127 25.8275 164.928 26.1666 165.604 26.6288L164.681 28.9095C164.005 28.5088 163.266 28.2007 162.528 27.9849C161.79 27.7692 161.051 27.6768 160.344 27.6768C159.205 27.6768 158.343 27.8617 157.758 28.2624C157.175 28.6629 156.928 29.1561 156.928 29.8032C156.928 30.2656 157.082 30.6354 157.42 30.9127C157.727 31.1902 158.158 31.4368 158.65 31.5908C159.143 31.7449 159.82 31.9298 160.682 32.1456C161.85 32.4229 162.804 32.7003 163.543 32.9776C164.281 33.2551 164.928 33.7174 165.451 34.3029C165.973 34.8885 166.251 35.7207 166.251 36.7376C166.251 37.6007 166.004 38.402 165.542 39.1108C165.081 39.8197 164.343 40.3744 163.389 40.8059C162.435 41.2374 161.267 41.4224 159.882 41.4224C158.712 41.3607 157.513 41.2066 156.405 40.8368ZM179.819 36.0288H170.404C170.557 36.9226 170.988 37.6007 171.696 38.1246C172.403 38.6485 173.265 38.8951 174.28 38.8951C175.603 38.8951 176.68 38.4636 177.542 37.6007L179.05 39.3266C178.496 39.9737 177.82 40.4669 177.019 40.7751C176.188 41.1141 175.265 41.2681 174.219 41.2681C172.896 41.2681 171.727 40.9908 170.743 40.4669C169.727 39.9429 168.958 39.2032 168.404 38.2787C167.85 37.3541 167.574 36.2754 167.574 35.1042C167.574 33.9331 167.85 32.8853 168.373 31.9298C168.896 31.0053 169.634 30.2656 170.588 29.7417C171.542 29.2176 172.589 28.9403 173.788 28.9403C174.958 28.9403 176.003 29.1869 176.926 29.7108C177.849 30.2347 178.557 30.9436 179.081 31.899C179.604 32.8236 179.849 33.9331 179.849 35.1351C179.849 35.3817 179.849 35.659 179.819 36.0288ZM171.511 32.0531C170.897 32.5771 170.526 33.2859 170.374 34.1797H177.173C177.049 33.3168 176.68 32.6078 176.065 32.0531C175.45 31.4983 174.68 31.2519 173.788 31.2519C172.896 31.2519 172.127 31.4983 171.511 32.0531ZM190.557 30.2656C191.48 31.1285 191.972 32.3922 191.972 34.0873V41.1141H189.325V39.6656C188.987 40.1895 188.495 40.5902 187.85 40.8675C187.203 41.1449 186.434 41.299 185.542 41.299C184.65 41.299 183.849 41.1449 183.173 40.8368C182.495 40.5285 181.972 40.0971 181.603 39.5424C181.234 38.9875 181.049 38.3712 181.049 37.6931C181.049 36.6144 181.45 35.7515 182.25 35.1042C183.049 34.4571 184.31 34.118 186.034 34.118H189.172V33.9331C189.172 33.101 188.925 32.4537 188.433 31.9915C187.941 31.5292 187.172 31.3134 186.187 31.3134C185.511 31.3134 184.864 31.4059 184.188 31.6217C183.542 31.8374 182.987 32.1147 182.526 32.4846L181.419 30.4505C182.034 29.9574 182.804 29.6183 183.696 29.341C184.588 29.0944 185.511 28.9712 186.496 28.9712C188.28 29.002 189.634 29.4026 190.557 30.2656ZM188.002 38.7719C188.556 38.4636 188.925 38.0013 189.172 37.3849V35.998H186.28C184.65 35.998 183.849 36.522 183.849 37.6007C183.849 38.1246 184.065 38.5253 184.465 38.8026C184.864 39.1108 185.418 39.2649 186.156 39.2649C186.834 39.2649 187.448 39.08 188.002 38.7719ZM201.817 29.002V31.6832C201.572 31.6525 201.355 31.6217 201.172 31.6217C200.064 31.6217 199.233 31.9298 198.617 32.5771C198.001 33.2242 197.694 34.1488 197.694 35.32V41.1449H194.894V29.1253H197.571V30.882C198.341 29.6183 199.756 29.002 201.817 29.002ZM205.694 40.4976C204.71 39.9737 203.939 39.2341 203.387 38.3095C202.833 37.3849 202.556 36.3063 202.556 35.1351C202.556 33.9639 202.833 32.8853 203.387 31.9607C203.939 31.0361 204.71 30.2964 205.694 29.7724C206.679 29.2485 207.786 28.9712 209.047 28.9712C210.217 28.9712 211.263 29.2176 212.156 29.68C213.048 30.1731 213.724 30.8512 214.154 31.7449L212.001 33.0085C211.663 32.4537 211.233 32.0224 210.709 31.7449C210.186 31.4675 209.632 31.3134 209.016 31.3134C207.971 31.3134 207.11 31.6525 206.401 32.3305C205.725 33.0085 205.355 33.9331 205.355 35.0734C205.355 36.2137 205.694 37.1383 206.37 37.8164C207.048 38.4944 207.909 38.8334 208.985 38.8334C209.601 38.8334 210.155 38.6793 210.678 38.402C211.202 38.1246 211.632 37.7239 211.97 37.1383L214.124 38.402C213.662 39.2958 212.986 40.0046 212.094 40.4976C211.202 40.9908 210.186 41.2374 209.016 41.2374C207.817 41.299 206.679 41.0217 205.694 40.4976ZM226.461 30.3273C227.384 31.221 227.846 32.5154 227.846 34.2722V41.1449H225.046V34.6112C225.046 33.5632 224.8 32.762 224.308 32.238C223.815 31.7141 223.109 31.4368 222.185 31.4368C221.139 31.4368 220.339 31.7449 219.724 32.3613C219.139 32.9776 218.831 33.8715 218.831 35.0426V41.1141H216.031V24.4407H218.831V30.5122C219.293 30.019 219.878 29.6492 220.554 29.3719C221.232 29.1253 222 28.9712 222.831 28.9712C224.339 29.002 225.569 29.4334 226.461 30.3273Z" fill="#FF2A23"/>
<rect width="77" height="59" fill="#FAF4F4"/>
<path d="M45 48.54C45 59.0334 36.4934 67.54 26 67.54C15.5066 67.54 7 59.0334 7 48.54C7 38.0465 21 25 26 21.04C26 20.0399 45 38.0465 45 48.54Z" fill="#FF2A23"/>
<path d="M50.2894 24.5466L50.3017 24.5448C52.0943 24.2865 53.7361 25.1582 54.9294 26.3959C56.1382 27.6495 57.0465 29.4198 57.4492 31.4097L50.2894 24.5466ZM50.2894 24.5466L50.2771 24.5485M50.2894 24.5466L50.2771 24.5485M50.2771 24.5485C48.4606 24.841 47.2052 26.1827 46.5451 27.7546C45.8833 29.3307 45.7346 31.2862 46.1488 33.2683M50.2771 24.5485L46.1488 33.2683M64.7437 24.5466L64.7541 24.5482C66.5799 24.8397 67.8361 26.1802 68.4994 27.7523C69.1633 29.3261 69.3173 31.2773 68.9266 33.2529L68.9244 33.264L68.9221 33.2751C68.4985 35.2594 67.5808 37.0268 66.3672 38.2762C65.1694 39.5094 63.5239 40.3783 61.727 40.1045M64.7437 24.5466L61.9522 38.6215M64.7437 24.5466L64.7333 24.545C62.9459 24.2853 61.3079 25.1617 60.1196 26.3972C58.9151 27.6496 58.0073 29.4179 57.6042 31.4064M64.7437 24.5466L59.0735 31.7086M61.727 40.1045C61.7266 40.1045 61.7263 40.1044 61.726 40.1044L61.9522 38.6215M61.727 40.1045C61.7273 40.1046 61.7276 40.1046 61.7279 40.1047L61.9522 38.6215M61.727 40.1045C59.8918 39.8266 58.6354 38.4832 57.9817 36.9075C57.7762 36.4123 57.6219 35.8796 57.5198 35.3207M61.9522 38.6215C59.6218 38.269 58.3489 35.1749 59.0735 31.7086M57.5198 35.3207C57.7214 34.228 57.7258 33.0345 57.5254 31.8228M57.5198 35.3207C57.3199 34.2276 57.3195 33.034 57.5254 31.8228M57.5198 35.3207C57.4166 35.8798 57.2618 36.4124 57.0564 36.9075C56.405 38.4777 55.1562 39.8252 53.327 40.1044C53.3275 40.1043 53.3281 40.1042 53.3286 40.1041L57.4495 31.4113C57.4775 31.5486 57.5027 31.6858 57.5254 31.8228M57.5254 31.8228C57.549 31.6842 57.5752 31.5454 57.6042 31.4064M57.6042 31.4064C57.6039 31.408 57.6036 31.4097 57.6032 31.4113L59.0735 31.7086M57.6042 31.4064C57.6046 31.4048 57.6049 31.4033 57.6052 31.4017L59.0735 31.7086M46.1488 33.2683C46.5626 35.258 47.4819 37.0269 48.6954 38.2762C49.8908 39.507 51.5367 40.379 53.3268 40.1044L46.1488 33.2683ZM39.4461 33.6597L39.4461 33.6597L39.4386 33.663C37.7685 34.3917 36.8618 35.9692 36.592 37.6408C36.3219 39.3139 36.6481 41.2183 37.5431 42.997C38.436 44.7714 39.7735 46.2031 41.2804 47.0591C42.7764 47.9088 44.5896 48.2598 46.2556 47.5373C47.9484 46.8033 48.8664 45.2333 49.1437 43.5537C49.4198 41.8816 49.0993 39.9836 48.2444 38.2063L48.2336 38.1839L48.2221 38.1618C47.3081 36.413 45.9573 34.9931 44.4432 34.1416C42.9408 33.2967 41.1214 32.9396 39.4461 33.6597ZM75.8884 33.663L75.8808 33.6597C74.2055 32.9396 72.3862 33.2967 70.8838 34.1416C69.3697 34.9931 68.0188 36.413 67.1049 38.1618L67.0934 38.1839L67.0826 38.2063C66.2277 39.9836 65.9072 41.8816 66.1833 43.5537C66.4606 45.2333 67.3786 46.8033 69.0713 47.5373C70.7374 48.2598 72.5505 47.9088 74.0465 47.0591C75.5534 46.2031 76.891 44.7714 77.7838 42.997C78.6788 41.2183 79.005 39.3139 78.735 37.6408C78.4652 35.9692 77.5585 34.3917 75.8884 33.663ZM73.5167 56.0849L73.5167 56.0843C73.4231 53.9063 72.1392 52.259 70.8788 50.991C70.3165 50.4252 69.7026 49.8814 69.1342 49.3779C69.0569 49.3095 68.9805 49.2418 68.9052 49.175C68.2558 48.5983 67.6771 48.0721 67.1938 47.5408L67.188 47.5345L67.1821 47.5282C66.5953 46.8978 66.0205 46.1194 65.3909 45.2381C65.3058 45.119 65.2197 44.9979 65.1324 44.8753C64.5938 44.1183 64.0143 43.3038 63.4034 42.5589C62.0137 40.8643 60.1267 39.0995 57.4481 39.0995C54.7466 39.0995 52.882 40.9015 51.5126 42.5969C50.9746 43.263 50.4528 43.9919 49.9639 44.6748C49.82 44.8759 49.6789 45.073 49.5411 45.2634C48.9116 46.1328 48.3308 46.8904 47.7316 47.4896L47.7242 47.497L47.7169 47.5045C47.3271 47.9054 46.9482 48.462 46.8993 49.175C46.8481 49.922 47.1796 50.5007 47.5089 50.8781C47.8227 51.2377 48.2147 51.512 48.5433 51.7167C48.8828 51.928 49.2618 52.1289 49.5983 52.3071C50.3349 52.697 50.9054 53.0043 51.2963 53.3465C51.5276 53.5488 51.5933 53.6711 51.6097 53.7432C51.5884 53.7741 51.5544 53.8197 51.5021 53.8803C51.3286 54.0817 51.0524 54.3359 50.6665 54.6399C49.9408 55.2117 49.0104 55.8192 48.0488 56.4471C47.9849 56.4888 47.9208 56.5306 47.8567 56.5725C46.8893 57.2046 45.8331 57.8984 45.1598 58.5168C44.8682 58.7847 44.3879 59.2624 44.2068 59.899C44.0965 60.2869 44.0833 60.7879 44.3417 61.2781C44.5796 61.7295 44.9519 61.9874 45.2435 62.132C47.5685 63.3039 50.0294 62.6506 51.9819 62.0062C52.4129 61.864 52.8091 61.7254 53.1919 61.5914C53.7729 61.3881 54.3228 61.1956 54.9165 61.0179C55.8533 60.7375 56.6854 60.5665 57.4481 60.5665C58.2186 60.5665 59.0536 60.7323 59.9876 61.0025C60.5877 61.1761 61.1495 61.367 61.743 61.5685C62.1148 61.6948 62.4989 61.8252 62.9127 61.9583C64.8664 62.5869 67.2962 63.22 69.6243 62.1548C70.7607 61.6388 71.7384 60.7323 72.4214 59.7018C73.103 58.6733 73.5725 57.3962 73.5167 56.0849ZM51.6114 53.8201C51.612 53.8152 51.6126 53.8105 51.6133 53.8059C51.6129 53.809 51.6125 53.8119 51.6121 53.8145C51.6118 53.8165 51.6116 53.8184 51.6114 53.8201Z" fill="#FF2A23" stroke="#FAF4F4" stroke-width="3"/>
<path d="M94.02 51.416V54.74H92.22V53H86.076V54.74H84.276L84.288 51.416H85.296V48.272C85.296 47.464 85.456 46.776 85.776 46.208C86.096 45.632 86.544 45.196 87.12 44.9C87.704 44.604 88.38 44.456 89.148 44.456C89.916 44.456 90.588 44.604 91.164 44.9C91.748 45.196 92.2 45.632 92.52 46.208C92.84 46.776 93 47.464 93 48.272V51.416H94.02ZM91.044 51.416V48.104C91.044 47.448 90.876 46.952 90.54 46.616C90.212 46.28 89.748 46.112 89.148 46.112C88.556 46.112 88.088 46.28 87.744 46.616C87.408 46.952 87.24 47.448 87.24 48.104V51.416H91.044ZM101.67 46.544V53H99.8819V52.256C99.4179 52.816 98.7459 53.096 97.8659 53.096C97.2579 53.096 96.7059 52.96 96.2099 52.688C95.7219 52.416 95.3379 52.028 95.0579 51.524C94.7779 51.02 94.6379 50.436 94.6379 49.772C94.6379 49.108 94.7779 48.524 95.0579 48.02C95.3379 47.516 95.7219 47.128 96.2099 46.856C96.7059 46.584 97.2579 46.448 97.8659 46.448C98.6899 46.448 99.3339 46.708 99.7979 47.228V46.544H101.67ZM98.1899 51.56C98.6619 51.56 99.0539 51.4 99.3659 51.08C99.6779 50.752 99.8339 50.316 99.8339 49.772C99.8339 49.228 99.6779 48.796 99.3659 48.476C99.0539 48.148 98.6619 47.984 98.1899 47.984C97.7099 47.984 97.3139 48.148 97.0019 48.476C96.6899 48.796 96.5339 49.228 96.5339 49.772C96.5339 50.316 96.6899 50.752 97.0019 51.08C97.3139 51.4 97.7099 51.56 98.1899 51.56ZM109.811 46.544V53H108.023V52.244C107.783 52.524 107.487 52.736 107.135 52.88C106.791 53.024 106.423 53.096 106.031 53.096C105.183 53.096 104.507 52.852 104.003 52.364C103.507 51.876 103.259 51.152 103.259 50.192V46.544H105.131V49.916C105.131 50.956 105.567 51.476 106.439 51.476C106.895 51.476 107.259 51.332 107.531 51.044C107.803 50.748 107.939 50.312 107.939 49.736V46.544H109.811ZM106.487 45.848C105.079 45.848 104.371 45.228 104.363 43.988H105.587C105.595 44.268 105.671 44.488 105.815 44.648C105.967 44.8 106.187 44.876 106.475 44.876C106.763 44.876 106.983 44.8 107.135 44.648C107.295 44.488 107.375 44.268 107.375 43.988H108.623C108.615 45.228 107.903 45.848 106.487 45.848ZM121.186 46.544V53H119.314V48.08H117.274L117.214 49.22C117.182 50.068 117.102 50.772 116.974 51.332C116.846 51.892 116.638 52.332 116.35 52.652C116.062 52.972 115.662 53.132 115.15 53.132C114.878 53.132 114.554 53.084 114.178 52.988L114.274 51.452C114.402 51.468 114.494 51.476 114.55 51.476C114.83 51.476 115.038 51.376 115.174 51.176C115.318 50.968 115.414 50.708 115.462 50.396C115.51 50.076 115.546 49.656 115.57 49.136L115.666 46.544H121.186ZM129.502 46.544V53H127.714V52.256C127.25 52.816 126.578 53.096 125.698 53.096C125.09 53.096 124.538 52.96 124.042 52.688C123.554 52.416 123.17 52.028 122.89 51.524C122.61 51.02 122.47 50.436 122.47 49.772C122.47 49.108 122.61 48.524 122.89 48.02C123.17 47.516 123.554 47.128 124.042 46.856C124.538 46.584 125.09 46.448 125.698 46.448C126.522 46.448 127.166 46.708 127.63 47.228V46.544H129.502ZM126.022 51.56C126.494 51.56 126.886 51.4 127.198 51.08C127.51 50.752 127.666 50.316 127.666 49.772C127.666 49.228 127.51 48.796 127.198 48.476C126.886 48.148 126.494 47.984 126.022 47.984C125.542 47.984 125.146 48.148 124.834 48.476C124.522 48.796 124.366 49.228 124.366 49.772C124.366 50.316 124.522 50.752 124.834 51.08C125.146 51.4 125.542 51.56 126.022 51.56ZM137.691 46.544V53H135.819V48.08H133.131V53H131.271V46.544H137.691ZM145.954 46.544V51.92C145.954 53.104 145.654 53.984 145.054 54.56C144.454 55.136 143.582 55.424 142.438 55.424C141.83 55.424 141.254 55.348 140.71 55.196C140.174 55.044 139.722 54.824 139.354 54.536L140.098 53.192C140.37 53.416 140.702 53.592 141.094 53.72C141.486 53.848 141.882 53.912 142.282 53.912C142.906 53.912 143.362 53.768 143.65 53.48C143.938 53.192 144.082 52.752 144.082 52.16V51.944C143.842 52.184 143.558 52.368 143.23 52.496C142.902 52.624 142.55 52.688 142.174 52.688C141.326 52.688 140.654 52.448 140.158 51.968C139.662 51.48 139.414 50.752 139.414 49.784V46.544H141.286V49.508C141.286 50.556 141.722 51.08 142.594 51.08C143.042 51.08 143.402 50.936 143.674 50.648C143.946 50.352 144.082 49.916 144.082 49.34V46.544H145.954Z" fill="#252525"/>
<path d="M86.317 63.056C85.9157 63.056 85.554 62.9743 85.232 62.811C84.9147 62.643 84.665 62.412 84.483 62.118C84.3057 61.824 84.217 61.4903 84.217 61.117C84.217 60.7437 84.3057 60.41 84.483 60.116C84.665 59.822 84.9147 59.5933 85.232 59.43C85.554 59.262 85.9157 59.178 86.317 59.178C86.7137 59.178 87.059 59.262 87.353 59.43C87.6517 59.5933 87.8687 59.829 88.004 60.137L87.157 60.592C86.961 60.2467 86.6787 60.074 86.31 60.074C86.0253 60.074 85.7897 60.1673 85.603 60.354C85.4163 60.5407 85.323 60.795 85.323 61.117C85.323 61.439 85.4163 61.6933 85.603 61.88C85.7897 62.0667 86.0253 62.16 86.31 62.16C86.6833 62.16 86.9657 61.9873 87.157 61.642L88.004 62.104C87.8687 62.4027 87.6517 62.636 87.353 62.804C87.059 62.972 86.7137 63.056 86.317 63.056ZM90.3837 63.056C89.9871 63.056 89.6301 62.9743 89.3127 62.811C89.0001 62.643 88.7551 62.412 88.5777 62.118C88.4004 61.824 88.3117 61.4903 88.3117 61.117C88.3117 60.7437 88.4004 60.41 88.5777 60.116C88.7551 59.822 89.0001 59.5933 89.3127 59.43C89.6301 59.262 89.9871 59.178 90.3837 59.178C90.7804 59.178 91.1351 59.262 91.4477 59.43C91.7604 59.5933 92.0054 59.822 92.1827 60.116C92.3601 60.41 92.4487 60.7437 92.4487 61.117C92.4487 61.4903 92.3601 61.824 92.1827 62.118C92.0054 62.412 91.7604 62.643 91.4477 62.811C91.1351 62.9743 90.7804 63.056 90.3837 63.056ZM90.3837 62.16C90.6637 62.16 90.8924 62.0667 91.0697 61.88C91.2517 61.6887 91.3427 61.4343 91.3427 61.117C91.3427 60.7997 91.2517 60.5477 91.0697 60.361C90.8924 60.1697 90.6637 60.074 90.3837 60.074C90.1037 60.074 89.8727 60.1697 89.6907 60.361C89.5087 60.5477 89.4177 60.7997 89.4177 61.117C89.4177 61.4343 89.5087 61.6887 89.6907 61.88C89.8727 62.0667 90.1037 62.16 90.3837 62.16ZM94.9638 63.056C94.5671 63.056 94.2101 62.9743 93.8928 62.811C93.5801 62.643 93.3351 62.412 93.1578 62.118C92.9805 61.824 92.8918 61.4903 92.8918 61.117C92.8918 60.7437 92.9805 60.41 93.1578 60.116C93.3351 59.822 93.5801 59.5933 93.8928 59.43C94.2101 59.262 94.5671 59.178 94.9638 59.178C95.3605 59.178 95.7151 59.262 96.0278 59.43C96.3405 59.5933 96.5855 59.822 96.7628 60.116C96.9401 60.41 97.0288 60.7437 97.0288 61.117C97.0288 61.4903 96.9401 61.824 96.7628 62.118C96.5855 62.412 96.3405 62.643 96.0278 62.811C95.7151 62.9743 95.3605 63.056 94.9638 63.056ZM94.9638 62.16C95.2438 62.16 95.4725 62.0667 95.6498 61.88C95.8318 61.6887 95.9228 61.4343 95.9228 61.117C95.9228 60.7997 95.8318 60.5477 95.6498 60.361C95.4725 60.1697 95.2438 60.074 94.9638 60.074C94.6838 60.074 94.4528 60.1697 94.2708 60.361C94.0888 60.5477 93.9978 60.7997 93.9978 61.117C93.9978 61.4343 94.0888 61.6887 94.2708 61.88C94.4528 62.0667 94.6838 62.16 94.9638 62.16ZM99.9569 59.493C100.316 59.493 100.631 59.5677 100.902 59.717C101.173 59.8617 101.38 60.067 101.525 60.333C101.674 60.599 101.749 60.907 101.749 61.257C101.749 61.6163 101.66 61.936 101.483 62.216C101.31 62.4913 101.068 62.706 100.755 62.86C100.442 63.0093 100.088 63.084 99.6909 63.084C99.0329 63.084 98.5149 62.874 98.1369 62.454C97.7635 62.0293 97.5769 61.4087 97.5769 60.592C97.5769 59.836 97.7402 59.234 98.0669 58.786C98.3982 58.3333 98.9045 58.037 99.5859 57.897L101.378 57.54L101.525 58.478L99.9429 58.793C99.5135 58.877 99.1939 59.017 98.9839 59.213C98.7785 59.409 98.6572 59.6867 98.6199 60.046C98.7832 59.8687 98.9792 59.7333 99.2079 59.64C99.4365 59.542 99.6862 59.493 99.9569 59.493ZM99.6979 62.237C99.9779 62.237 100.202 62.146 100.37 61.964C100.543 61.782 100.629 61.551 100.629 61.271C100.629 60.9863 100.543 60.76 100.37 60.592C100.202 60.424 99.9779 60.34 99.6979 60.34C99.4132 60.34 99.1845 60.424 99.0119 60.592C98.8392 60.76 98.7529 60.9863 98.7529 61.271C98.7529 61.5557 98.8415 61.789 99.0189 61.971C99.1962 62.1483 99.4225 62.237 99.6979 62.237ZM108.237 59.234V63H102.49V59.234H103.575V62.104H104.828V59.234H105.913V62.104H107.152V59.234H108.237ZM108.762 62.104V63.749H107.747V63H107.124V62.104H108.762ZM111.161 62.181C111.357 62.181 111.529 62.153 111.679 62.097C111.833 62.0363 111.975 61.943 112.106 61.817L112.687 62.447C112.332 62.853 111.814 63.056 111.133 63.056C110.708 63.056 110.332 62.9743 110.006 62.811C109.679 62.643 109.427 62.412 109.25 62.118C109.072 61.824 108.984 61.4903 108.984 61.117C108.984 60.7483 109.07 60.417 109.243 60.123C109.42 59.8243 109.66 59.5933 109.964 59.43C110.272 59.262 110.617 59.178 111 59.178C111.359 59.178 111.686 59.255 111.98 59.409C112.274 59.5583 112.507 59.7777 112.68 60.067C112.857 60.3517 112.946 60.69 112.946 61.082L110.16 61.621C110.239 61.8077 110.363 61.9477 110.531 62.041C110.703 62.1343 110.913 62.181 111.161 62.181ZM111 60.004C110.724 60.004 110.5 60.0927 110.328 60.27C110.155 60.4473 110.064 60.6923 110.055 61.005L111.889 60.648C111.837 60.452 111.732 60.2957 111.574 60.179C111.415 60.0623 111.224 60.004 111 60.004ZM115.493 63.056C115.091 63.056 114.73 62.9743 114.408 62.811C114.09 62.643 113.841 62.412 113.659 62.118C113.481 61.824 113.393 61.4903 113.393 61.117C113.393 60.7437 113.481 60.41 113.659 60.116C113.841 59.822 114.09 59.5933 114.408 59.43C114.73 59.262 115.091 59.178 115.493 59.178C115.889 59.178 116.235 59.262 116.529 59.43C116.827 59.5933 117.044 59.829 117.18 60.137L116.333 60.592C116.137 60.2467 115.854 60.074 115.486 60.074C115.201 60.074 114.965 60.1673 114.779 60.354C114.592 60.5407 114.499 60.795 114.499 61.117C114.499 61.439 114.592 61.6933 114.779 61.88C114.965 62.0667 115.201 62.16 115.486 62.16C115.859 62.16 116.141 61.9873 116.333 61.642L117.18 62.104C117.044 62.4027 116.827 62.636 116.529 62.804C116.235 62.972 115.889 63.056 115.493 63.056ZM122.659 59.178C123.131 59.178 123.504 59.318 123.779 59.598C124.059 59.8733 124.199 60.2887 124.199 60.844V63H123.107V61.012C123.107 60.7133 123.044 60.4917 122.918 60.347C122.797 60.1977 122.622 60.123 122.393 60.123C122.137 60.123 121.934 60.207 121.784 60.375C121.635 60.5383 121.56 60.7833 121.56 61.11V63H120.468V61.012C120.468 60.4193 120.23 60.123 119.754 60.123C119.502 60.123 119.302 60.207 119.152 60.375C119.003 60.5383 118.928 60.7833 118.928 61.11V63H117.836V59.234H118.879V59.668C119.019 59.5093 119.19 59.388 119.39 59.304C119.596 59.22 119.82 59.178 120.062 59.178C120.328 59.178 120.569 59.2317 120.783 59.339C120.998 59.4417 121.171 59.5933 121.301 59.794C121.455 59.598 121.649 59.4463 121.882 59.339C122.12 59.2317 122.379 59.178 122.659 59.178ZM128.028 61.033C128.471 61.1823 128.693 61.481 128.693 61.929C128.693 62.2697 128.565 62.5333 128.308 62.72C128.051 62.9067 127.669 63 127.16 63H125.151V59.234H127.076C127.547 59.234 127.916 59.3203 128.182 59.493C128.448 59.661 128.581 59.899 128.581 60.207C128.581 60.3937 128.532 60.5593 128.434 60.704C128.341 60.844 128.205 60.9537 128.028 61.033ZM126.152 60.781H126.978C127.361 60.781 127.552 60.6457 127.552 60.375C127.552 60.109 127.361 59.976 126.978 59.976H126.152V60.781ZM127.069 62.258C127.47 62.258 127.671 62.1203 127.671 61.845C127.671 61.7003 127.624 61.5953 127.531 61.53C127.438 61.46 127.291 61.425 127.09 61.425H126.152V62.258H127.069ZM131.269 63.056C130.873 63.056 130.516 62.9743 130.198 62.811C129.886 62.643 129.641 62.412 129.463 62.118C129.286 61.824 129.197 61.4903 129.197 61.117C129.197 60.7437 129.286 60.41 129.463 60.116C129.641 59.822 129.886 59.5933 130.198 59.43C130.516 59.262 130.873 59.178 131.269 59.178C131.666 59.178 132.021 59.262 132.333 59.43C132.646 59.5933 132.891 59.822 133.068 60.116C133.246 60.41 133.334 60.7437 133.334 61.117C133.334 61.4903 133.246 61.824 133.068 62.118C132.891 62.412 132.646 62.643 132.333 62.811C132.021 62.9743 131.666 63.056 131.269 63.056ZM131.269 62.16C131.549 62.16 131.778 62.0667 131.955 61.88C132.137 61.6887 132.228 61.4343 132.228 61.117C132.228 60.7997 132.137 60.5477 131.955 60.361C131.778 60.1697 131.549 60.074 131.269 60.074C130.989 60.074 130.758 60.1697 130.576 60.361C130.394 60.5477 130.303 60.7997 130.303 61.117C130.303 61.4343 130.394 61.6887 130.576 61.88C130.758 62.0667 130.989 62.16 131.269 62.16ZM139.911 59.234V62.37C139.911 63.0607 139.731 63.574 139.372 63.91C139.013 64.246 138.488 64.414 137.797 64.414C137.433 64.414 137.088 64.3697 136.761 64.281C136.434 64.1923 136.164 64.064 135.949 63.896L136.383 63.112C136.542 63.2427 136.742 63.3453 136.985 63.42C137.228 63.4993 137.47 63.539 137.713 63.539C138.091 63.539 138.369 63.4527 138.546 63.28C138.728 63.112 138.819 62.8553 138.819 62.51V62.349C138.534 62.6617 138.138 62.818 137.629 62.818C137.284 62.818 136.966 62.7433 136.677 62.594C136.392 62.44 136.166 62.2253 135.998 61.95C135.83 61.6747 135.746 61.3573 135.746 60.998C135.746 60.6387 135.83 60.3213 135.998 60.046C136.166 59.7707 136.392 59.5583 136.677 59.409C136.966 59.255 137.284 59.178 137.629 59.178C138.175 59.178 138.59 59.3577 138.875 59.717V59.234H139.911ZM137.846 61.922C138.135 61.922 138.371 61.838 138.553 61.67C138.74 61.4973 138.833 61.2733 138.833 60.998C138.833 60.7227 138.74 60.501 138.553 60.333C138.371 60.1603 138.135 60.074 137.846 60.074C137.557 60.074 137.319 60.1603 137.132 60.333C136.945 60.501 136.852 60.7227 136.852 60.998C136.852 61.2733 136.945 61.4973 137.132 61.67C137.319 61.838 137.557 61.922 137.846 61.922ZM142.727 63.056C142.33 63.056 141.973 62.9743 141.656 62.811C141.343 62.643 141.098 62.412 140.921 62.118C140.743 61.824 140.655 61.4903 140.655 61.117C140.655 60.7437 140.743 60.41 140.921 60.116C141.098 59.822 141.343 59.5933 141.656 59.43C141.973 59.262 142.33 59.178 142.727 59.178C143.123 59.178 143.478 59.262 143.791 59.43C144.103 59.5933 144.348 59.822 144.526 60.116C144.703 60.41 144.792 60.7437 144.792 61.117C144.792 61.4903 144.703 61.824 144.526 62.118C144.348 62.412 144.103 62.643 143.791 62.811C143.478 62.9743 143.123 63.056 142.727 63.056ZM142.727 62.16C143.007 62.16 143.235 62.0667 143.413 61.88C143.595 61.6887 143.686 61.4343 143.686 61.117C143.686 60.7997 143.595 60.5477 143.413 60.361C143.235 60.1697 143.007 60.074 142.727 60.074C142.447 60.074 142.216 60.1697 142.034 60.361C141.852 60.5477 141.761 60.7997 141.761 61.117C141.761 61.4343 141.852 61.6887 142.034 61.88C142.216 62.0667 142.447 62.16 142.727 62.16ZM145.543 59.234H146.628V60.704H148.266V59.234H149.358V63H148.266V61.593H146.628V63H145.543V59.234ZM152.167 63.056C151.77 63.056 151.413 62.9743 151.096 62.811C150.783 62.643 150.538 62.412 150.361 62.118C150.184 61.824 150.095 61.4903 150.095 61.117C150.095 60.7437 150.184 60.41 150.361 60.116C150.538 59.822 150.783 59.5933 151.096 59.43C151.413 59.262 151.77 59.178 152.167 59.178C152.564 59.178 152.918 59.262 153.231 59.43C153.544 59.5933 153.789 59.822 153.966 60.116C154.143 60.41 154.232 60.7437 154.232 61.117C154.232 61.4903 154.143 61.824 153.966 62.118C153.789 62.412 153.544 62.643 153.231 62.811C152.918 62.9743 152.564 63.056 152.167 63.056ZM152.167 62.16C152.447 62.16 152.676 62.0667 152.853 61.88C153.035 61.6887 153.126 61.4343 153.126 61.117C153.126 60.7997 153.035 60.5477 152.853 60.361C152.676 60.1697 152.447 60.074 152.167 60.074C151.887 60.074 151.656 60.1697 151.474 60.361C151.292 60.5477 151.201 60.7997 151.201 61.117C151.201 61.4343 151.292 61.6887 151.474 61.88C151.656 62.0667 151.887 62.16 152.167 62.16ZM156.915 59.178C157.316 59.178 157.666 59.2573 157.965 59.416C158.264 59.5747 158.495 59.801 158.658 60.095C158.821 60.389 158.903 60.732 158.903 61.124C158.903 61.5067 158.826 61.845 158.672 62.139C158.518 62.4283 158.301 62.6547 158.021 62.818C157.741 62.9767 157.419 63.056 157.055 63.056C156.574 63.056 156.199 62.9043 155.928 62.601V64.358H154.836V61.131C154.836 60.7437 154.922 60.403 155.095 60.109C155.268 59.815 155.51 59.5863 155.823 59.423C156.136 59.2597 156.5 59.178 156.915 59.178ZM156.866 62.16C157.151 62.16 157.382 62.0643 157.559 61.873C157.736 61.6817 157.825 61.432 157.825 61.124C157.825 60.8113 157.736 60.5593 157.559 60.368C157.382 60.172 157.151 60.074 156.866 60.074C156.581 60.074 156.35 60.1697 156.173 60.361C156 60.5523 155.914 60.8043 155.914 61.117C155.914 61.4297 156 61.6817 156.173 61.873C156.346 62.0643 156.577 62.16 156.866 62.16ZM161.436 63.056C161.04 63.056 160.683 62.9743 160.365 62.811C160.053 62.643 159.808 62.412 159.63 62.118C159.453 61.824 159.364 61.4903 159.364 61.117C159.364 60.7437 159.453 60.41 159.63 60.116C159.808 59.822 160.053 59.5933 160.365 59.43C160.683 59.262 161.04 59.178 161.436 59.178C161.833 59.178 162.188 59.262 162.5 59.43C162.813 59.5933 163.058 59.822 163.235 60.116C163.413 60.41 163.501 60.7437 163.501 61.117C163.501 61.4903 163.413 61.824 163.235 62.118C163.058 62.412 162.813 62.643 162.5 62.811C162.188 62.9743 161.833 63.056 161.436 63.056ZM161.436 62.16C161.716 62.16 161.945 62.0667 162.122 61.88C162.304 61.6887 162.395 61.4343 162.395 61.117C162.395 60.7997 162.304 60.5477 162.122 60.361C161.945 60.1697 161.716 60.074 161.436 60.074C161.156 60.074 160.925 60.1697 160.743 60.361C160.561 60.5477 160.47 60.7997 160.47 61.117C160.47 61.4343 160.561 61.6887 160.743 61.88C160.925 62.0667 161.156 62.16 161.436 62.16ZM167.13 61.033C167.573 61.1823 167.795 61.481 167.795 61.929C167.795 62.2697 167.666 62.5333 167.41 62.72C167.153 62.9067 166.77 63 166.262 63H164.253V59.234H166.178C166.649 59.234 167.018 59.3203 167.284 59.493C167.55 59.661 167.683 59.899 167.683 60.207C167.683 60.3937 167.634 60.5593 167.536 60.704C167.442 60.844 167.307 60.9537 167.13 61.033ZM165.254 60.781H166.08C166.462 60.781 166.654 60.6457 166.654 60.375C166.654 60.109 166.462 59.976 166.08 59.976H165.254V60.781ZM166.171 62.258C166.572 62.258 166.773 62.1203 166.773 61.845C166.773 61.7003 166.726 61.5953 166.633 61.53C166.539 61.46 166.392 61.425 166.192 61.425H165.254V62.258H166.171ZM174.32 61.572H173.795V63H172.717V61.572H172.192L171.394 63H170.106L171.289 61.054L170.19 59.234H171.345L172.178 60.697H172.717V59.234H173.795V60.697H174.327L175.167 59.234H176.322L175.223 61.054L176.413 63H175.118L174.32 61.572ZM180.63 59.234V63H179.587V62.559C179.447 62.7223 179.274 62.846 179.069 62.93C178.868 63.014 178.653 63.056 178.425 63.056C177.93 63.056 177.536 62.9137 177.242 62.629C176.952 62.3443 176.808 61.922 176.808 61.362V59.234H177.9V61.201C177.9 61.8077 178.154 62.111 178.663 62.111C178.929 62.111 179.141 62.027 179.3 61.859C179.458 61.6863 179.538 61.432 179.538 61.096V59.234H180.63ZM184.548 61.033C184.991 61.1823 185.213 61.481 185.213 61.929C185.213 62.2697 185.084 62.5333 184.828 62.72C184.571 62.9067 184.188 63 183.68 63H181.671V59.234H183.596C184.067 59.234 184.436 59.3203 184.702 59.493C184.968 59.661 185.101 59.899 185.101 60.207C185.101 60.3937 185.052 60.5593 184.954 60.704C184.86 60.844 184.725 60.9537 184.548 61.033ZM182.672 60.781H183.498C183.88 60.781 184.072 60.6457 184.072 60.375C184.072 60.109 183.88 59.976 183.498 59.976H182.672V60.781ZM183.589 62.258C183.99 62.258 184.191 62.1203 184.191 61.845C184.191 61.7003 184.144 61.5953 184.051 61.53C183.957 61.46 183.81 61.425 183.61 61.425H182.672V62.258H183.589ZM187.789 63.056C187.392 63.056 187.035 62.9743 186.718 62.811C186.405 62.643 186.16 62.412 185.983 62.118C185.806 61.824 185.717 61.4903 185.717 61.117C185.717 60.7437 185.806 60.41 185.983 60.116C186.16 59.822 186.405 59.5933 186.718 59.43C187.035 59.262 187.392 59.178 187.789 59.178C188.186 59.178 188.54 59.262 188.853 59.43C189.166 59.5933 189.411 59.822 189.588 60.116C189.765 60.41 189.854 60.7437 189.854 61.117C189.854 61.4903 189.765 61.824 189.588 62.118C189.411 62.412 189.166 62.643 188.853 62.811C188.54 62.9743 188.186 63.056 187.789 63.056ZM187.789 62.16C188.069 62.16 188.298 62.0667 188.475 61.88C188.657 61.6887 188.748 61.4343 188.748 61.117C188.748 60.7997 188.657 60.5477 188.475 60.361C188.298 60.1697 188.069 60.074 187.789 60.074C187.509 60.074 187.278 60.1697 187.096 60.361C186.914 60.5477 186.823 60.7997 186.823 61.117C186.823 61.4343 186.914 61.6887 187.096 61.88C187.278 62.0667 187.509 62.16 187.789 62.16ZM195.421 59.178C195.892 59.178 196.266 59.318 196.541 59.598C196.821 59.8733 196.961 60.2887 196.961 60.844V63H195.869V61.012C195.869 60.7133 195.806 60.4917 195.68 60.347C195.559 60.1977 195.384 60.123 195.155 60.123C194.898 60.123 194.695 60.207 194.546 60.375C194.397 60.5383 194.322 60.7833 194.322 61.11V63H193.23V61.012C193.23 60.4193 192.992 60.123 192.516 60.123C192.264 60.123 192.063 60.207 191.914 60.375C191.765 60.5383 191.69 60.7833 191.69 61.11V63H190.598V59.234H191.641V59.668C191.781 59.5093 191.951 59.388 192.152 59.304C192.357 59.22 192.581 59.178 192.824 59.178C193.09 59.178 193.33 59.2317 193.545 59.339C193.76 59.4417 193.932 59.5933 194.063 59.794C194.217 59.598 194.411 59.4463 194.644 59.339C194.882 59.2317 195.141 59.178 195.421 59.178ZM197.913 59.234H198.998V60.704H200.636V59.234H201.728V63H200.636V61.593H198.998V63H197.913V59.234ZM204.481 63.105C203.884 63.105 203.436 62.972 203.137 62.706C202.838 62.44 202.689 62.048 202.689 61.53V59.234H203.774V60.508C203.881 60.4333 204.021 60.3703 204.194 60.319C204.371 60.2677 204.572 60.242 204.796 60.242C205.258 60.242 205.62 60.3587 205.881 60.592C206.142 60.8253 206.273 61.166 206.273 61.614C206.273 62.09 206.112 62.4587 205.79 62.72C205.468 62.9767 205.032 63.105 204.481 63.105ZM206.672 59.234H207.764V63H206.672V59.234ZM204.481 62.335C204.705 62.335 204.875 62.2697 204.992 62.139C205.109 62.0083 205.167 61.838 205.167 61.628C205.167 61.432 205.106 61.2757 204.985 61.159C204.868 61.0377 204.698 60.977 204.474 60.977C204.315 60.977 204.175 61.0097 204.054 61.075C203.937 61.1357 203.844 61.2197 203.774 61.327V61.635C203.774 61.8543 203.835 62.027 203.956 62.153C204.077 62.2743 204.252 62.335 204.481 62.335ZM212.484 63V60.746L211.357 62.636H210.895L209.796 60.739V63H208.809V59.234H209.95L211.154 61.411L212.435 59.234H213.457L213.471 63H212.484Z" fill="#FF2A23"/>
<path d="M56.4852 39.8954L57.5 38.9631L58.5148 39.8954L60.4702 41.6918L60.4723 41.6938L60.5104 41.7286C63.9403 44.8674 66.9072 47.5824 69.0016 50.1683C71.1211 52.7852 72.5 55.45 72.5 58.5068C72.5 63.5339 68.5725 67.5 63.575 67.5C61.3252 67.5 59.1665 66.6581 57.5 65.2683C55.8335 66.6581 53.6748 67.5 51.425 67.5C46.4275 67.5 42.5 63.5339 42.5 58.5068C42.5 55.45 43.8789 52.7852 45.9984 50.1683C48.0928 47.5824 51.0597 44.8674 54.4896 41.7286L54.5277 41.6938L54.5298 41.6918L56.4852 39.8954Z" fill="#FF2A23" stroke="#FAF4F4" stroke-width="3"/>
</svg>
