<svg width="221" height="47" viewBox="0 0 221 47" fill="none" xmlns="http://www.w3.org/2000/svg">
<path d="M19.5 27.9422C19.5 17.3402 12.4161 23.5 23 23.5C33.5839 23.5 20.4602 18.898 20.4602 29.5C20.4602 42.3519 33.0513 18.3573 25.6364 27.9422C-5.41347 23.9047 24.3076 34.7926 24 34.7926C23.6922 34.7926 27.7153 33.7466 27.5 33.5C20.0852 23.8844 19.5 40.794 19.5 27.9422ZM21.1679 16.6929C21.1679 12.9946 16.4854 28.0819 18.0852 25C6.19857 50.5623 6.39596 47.0977 13.7219 25C11.3836 22.781 20.1773 27.6813 18.0852 25C17.8699 24.7226 20.7679 21.3645 20.4602 21.3645C20.1524 21.3645 29.0398 63.9599 25 20.4222C17.6159 30.0379 14 6.33745 14 19.1893C14 29.7913 10.584 34.9998 21.1679 34.9998C27.1675 34.9998 32.4901 32.2569 35.9976 27.9422C36.3361 27.5415 36.3052 26.9251 35.9053 26.5552C30.8902 21.5317 21.1679 25.5073 21.1679 16.6929ZM78.0562 4.39591H84.9479C86.6094 4.39591 88.117 4.7349 89.4092 5.38218C90.7015 6.02931 91.7168 6.95389 92.4552 8.15591C93.1935 9.35779 93.532 10.7139 93.532 12.2857C93.532 13.8574 93.1628 15.2135 92.4552 16.4156C91.7475 17.6175 90.7322 18.5422 89.4092 19.1893C88.117 19.8366 86.6094 20.1756 84.9479 20.1756H78.0869V4.39591H78.0562ZM84.7942 17.6791C85.9325 17.6791 86.9479 17.4634 87.8401 17.0012C88.7017 16.5696 89.3785 15.9224 89.8707 15.1212C90.3322 14.289 90.5784 13.3644 90.5784 12.2857C90.5784 11.2071 90.3322 10.2517 89.8707 9.45032C89.4092 8.61813 88.7324 8.00184 87.8401 7.57032C86.9479 7.1388 85.9633 6.89234 84.7942 6.89234H80.979V17.6791H84.7942ZM98.1163 19.4974C97.1317 18.9735 96.3934 18.2339 95.8396 17.3093C95.2858 16.3847 95.0089 15.3061 95.0089 14.1349C95.0089 12.9637 95.2858 11.8851 95.8396 10.9605C96.3934 10.0359 97.1317 9.29625 98.1163 8.7722C99.1009 8.2483 100.178 7.97099 101.408 7.97099C102.639 7.97099 103.747 8.2483 104.7 8.7722C105.685 9.29625 106.423 10.0359 106.977 10.9605C107.531 11.8851 107.808 12.9329 107.808 14.1349C107.808 15.3061 107.531 16.3847 106.977 17.3093C106.423 18.2339 105.685 18.9735 104.7 19.4974C103.716 20.0215 102.639 20.2988 101.408 20.2988C100.178 20.2988 99.1009 20.0215 98.1163 19.4974ZM103.962 16.8471C104.639 16.169 104.977 15.2444 104.977 14.1349C104.977 13.0254 104.639 12.1008 103.962 11.4227C103.285 10.7447 102.424 10.3749 101.408 10.3749C100.362 10.3749 99.5316 10.7139 98.8547 11.4227C98.1779 12.1008 97.8701 13.0254 97.8701 14.1349C97.8701 15.2444 98.2086 16.169 98.8547 16.8471C99.5316 17.5251 100.362 17.8949 101.408 17.8949C102.424 17.8949 103.285 17.5559 103.962 16.8471ZM120.392 9.32709C121.315 10.2208 121.776 11.5152 121.776 13.272V20.1447H118.976V13.611C118.976 12.563 118.73 11.7618 118.238 11.2378C117.746 10.7139 117.038 10.4366 116.115 10.4366C115.069 10.4366 114.269 10.7447 113.654 11.3612C113.069 11.9775 112.761 12.8713 112.761 14.0424V20.1139H109.962V8.09422H112.638V9.63524C113.1 9.08049 113.684 8.64897 114.392 8.37167C115.1 8.09422 115.9 7.94015 116.761 7.94015C118.269 8.00184 119.469 8.43321 120.392 9.32709ZM126.883 19.4974C125.899 18.9735 125.161 18.2339 124.607 17.3093C124.053 16.3847 123.776 15.3061 123.776 14.1349C123.776 12.9637 124.053 11.8851 124.607 10.9605C125.161 10.0359 125.899 9.29625 126.883 8.7722C127.868 8.2483 128.945 7.97099 130.176 7.97099C131.406 7.97099 132.514 8.2483 133.468 8.7722C134.452 9.29625 135.191 10.0359 135.744 10.9605C136.298 11.8851 136.575 12.9329 136.575 14.1349C136.575 15.3061 136.298 16.3847 135.744 17.3093C135.191 18.2339 134.452 18.9735 133.468 19.4974C132.483 20.0215 131.406 20.2988 130.176 20.2988C128.945 20.2988 127.868 20.0215 126.883 19.4974ZM132.729 16.8471C133.406 16.169 133.745 15.2444 133.745 14.1349C133.745 13.0254 133.406 12.1008 132.729 11.4227C132.052 10.7447 131.191 10.3749 130.176 10.3749C129.129 10.3749 128.299 10.7139 127.622 11.4227C126.945 12.1008 126.637 13.0254 126.637 14.1349C126.637 15.2444 126.976 16.169 127.622 16.8471C128.299 17.5251 129.129 17.8949 130.176 17.8949C131.191 17.8949 132.052 17.5559 132.729 16.8471ZM145.651 8.00184V10.683C145.405 10.6523 145.19 10.6215 145.005 10.6215C143.898 10.6215 143.067 10.9296 142.452 11.5769C141.836 12.2241 141.529 13.1486 141.529 14.3198V20.1447H138.729V8.12507H141.406V9.88184C142.175 8.61813 143.59 8.00184 145.651 8.00184ZM149.405 19.8366C148.267 19.4974 147.374 19.0352 146.728 18.4496L147.744 16.169C148.39 16.6929 149.19 17.0935 150.113 17.4325C151.036 17.7408 151.99 17.9257 152.944 17.9257C154.112 17.9257 154.974 17.7408 155.559 17.371C156.144 17.0012 156.42 16.508 156.42 15.8917C156.42 15.4293 156.266 15.0595 155.928 14.7822C155.62 14.5047 155.19 14.2581 154.697 14.1041C154.205 13.95 153.527 13.7651 152.666 13.5493C151.467 13.272 150.513 12.9946 149.744 12.6864C149.005 12.409 148.359 11.9468 147.836 11.3612C147.313 10.7447 147.036 9.94338 147.036 8.89557C147.036 8.03254 147.282 7.23133 147.744 6.52237C148.205 5.81355 148.913 5.2588 149.866 4.82728C150.82 4.39591 151.99 4.211 153.375 4.211C154.328 4.211 155.281 4.33422 156.204 4.58083C157.127 4.82728 157.928 5.16642 158.604 5.62863L157.681 7.90931C157.005 7.50863 156.266 7.20049 155.528 6.98473C154.79 6.76897 154.051 6.67658 153.344 6.67658C152.205 6.67658 151.343 6.8615 150.758 7.26218C150.175 7.66271 149.928 8.15591 149.928 8.80304C149.928 9.2654 150.082 9.63524 150.42 9.91254C150.727 10.19 151.158 10.4366 151.65 10.5907C152.143 10.7447 152.82 10.9296 153.682 11.1454C154.85 11.4227 155.804 11.7001 156.543 11.9774C157.281 12.2549 157.928 12.7173 158.451 13.3027C158.973 13.8883 159.251 14.7205 159.251 15.7375C159.251 16.6005 159.004 17.4018 158.542 18.1107C158.081 18.8195 157.343 19.3742 156.389 19.8057C155.435 20.2373 154.267 20.4222 152.882 20.4222C151.712 20.3605 150.513 20.2064 149.405 19.8366ZM172.819 15.0286H163.404C163.557 15.9224 163.988 16.6005 164.696 17.1244C165.403 17.6483 166.265 17.8949 167.28 17.8949C168.603 17.8949 169.68 17.4634 170.542 16.6005L172.05 18.3264C171.496 18.9735 170.82 19.4668 170.019 19.7749C169.188 20.1139 168.265 20.268 167.219 20.268C165.896 20.268 164.727 19.9907 163.742 19.4668C162.727 18.9427 161.958 18.203 161.404 17.2785C160.85 16.3539 160.574 15.2752 160.574 14.1041C160.574 12.9329 160.85 11.8851 161.373 10.9296C161.896 10.0051 162.634 9.2654 163.588 8.7415C164.542 8.21745 165.589 7.94015 166.788 7.94015C167.958 7.94015 169.003 8.18675 169.926 8.71066C170.849 9.23456 171.557 9.94338 172.081 10.8988C172.604 11.8234 172.849 12.9329 172.849 14.1349C172.849 14.3815 172.849 14.6588 172.819 15.0286ZM164.511 11.0529C163.897 11.5769 163.526 12.2857 163.374 13.1795H170.173C170.049 12.3166 169.68 11.6076 169.065 11.0529C168.45 10.4981 167.68 10.2517 166.788 10.2517C165.896 10.2517 165.127 10.4981 164.511 11.0529ZM183.557 9.2654C184.48 10.1283 184.972 11.392 184.972 13.0871V20.1139H182.325V18.6654C181.987 19.1893 181.495 19.59 180.849 19.8673C180.203 20.1447 179.434 20.2988 178.542 20.2988C177.65 20.2988 176.849 20.1447 176.173 19.8366C175.495 19.5283 174.972 19.0969 174.603 18.5422C174.234 17.9873 174.049 17.371 174.049 16.6929C174.049 15.6142 174.45 14.7513 175.25 14.1041C176.049 13.4569 177.31 13.1178 179.034 13.1178H182.172V12.9329C182.172 12.1008 181.925 11.4535 181.433 10.9913C180.941 10.529 180.172 10.3132 179.187 10.3132C178.511 10.3132 177.864 10.4057 177.188 10.6215C176.542 10.8373 175.987 11.1146 175.526 11.4844L174.419 9.45032C175.033 8.95726 175.804 8.61813 176.696 8.34083C177.588 8.09422 178.511 7.97099 179.496 7.97099C181.28 8.00184 182.634 8.40237 183.557 9.2654ZM181.002 17.7717C181.556 17.4634 181.925 17.0012 182.172 16.3847V14.9978H179.28C177.65 14.9978 176.849 15.5218 176.849 16.6005C176.849 17.1244 177.065 17.5251 177.465 17.8024C177.864 18.1107 178.418 18.2647 179.156 18.2647C179.834 18.2647 180.448 18.0798 181.002 17.7717ZM194.817 8.00184V10.683C194.572 10.6523 194.355 10.6215 194.172 10.6215C193.063 10.6215 192.233 10.9296 191.617 11.5769C191.001 12.2241 190.694 13.1486 190.694 14.3198V20.1447H187.894V8.12507H190.571V9.88184C191.341 8.61813 192.756 8.00184 194.817 8.00184ZM198.694 19.4974C197.71 18.9735 196.939 18.2339 196.387 17.3093C195.833 16.3847 195.556 15.3061 195.556 14.1349C195.556 12.9637 195.833 11.8851 196.387 10.9605C196.939 10.0359 197.71 9.29625 198.694 8.7722C199.679 8.2483 200.786 7.97099 202.047 7.97099C203.217 7.97099 204.263 8.21745 205.156 8.67981C206.048 9.17287 206.724 9.85099 207.154 10.7447L205.001 12.0083C204.663 11.4535 204.232 11.0222 203.709 10.7447C203.186 10.4673 202.632 10.3132 202.016 10.3132C200.971 10.3132 200.11 10.6523 199.401 11.3303C198.725 12.0083 198.355 12.9329 198.355 14.0732C198.355 15.2135 198.694 16.1381 199.37 16.8162C200.048 17.4942 200.909 17.8332 201.985 17.8332C202.601 17.8332 203.155 17.6791 203.678 17.4018C204.202 17.1244 204.632 16.7237 204.97 16.1381L207.124 17.4018C206.662 18.2956 205.986 19.0044 205.094 19.4974C204.202 19.9907 203.186 20.2373 202.016 20.2373C200.817 20.2988 199.679 20.0215 198.694 19.4974ZM219.461 9.32709C220.384 10.2208 220.846 11.5152 220.846 13.272V20.1447H218.046V13.611C218.046 12.563 217.8 11.7618 217.308 11.2378C216.815 10.7139 216.108 10.4366 215.185 10.4366C214.139 10.4366 213.339 10.7447 212.724 11.3612C212.139 11.9775 211.831 12.8713 211.831 14.0424V20.1139H209.031V3.44049H211.831V9.51201C212.293 9.0188 212.878 8.64897 213.554 8.37167C214.232 8.12507 215 7.97099 215.831 7.97099C217.339 8.00184 218.569 8.43321 219.461 9.32709Z" fill="#FF5B56"/>
<path d="M38 27.54C38 38.0334 29.4934 46.54 19 46.54C8.50659 46.54 0 38.0334 0 27.54C0 17.0465 14 4 19 0.0399576C19 -0.960053 38 17.0465 38 27.54Z" fill="#FF5B56"/>
<path d="M36.2863 5.5405L36.2738 5.54231L36.2615 5.54432C34.6257 5.81011 33.5186 7.02528 32.946 8.40123C32.371 9.78312 32.2461 11.4845 32.601 13.1987C32.7238 13.7943 32.8986 14.3681 33.1184 14.9091C32.6287 14.4261 32.0933 14.0163 31.53 13.6966C30.2257 12.9564 28.6138 12.6262 27.1136 13.2768L27.1136 13.2768L27.106 13.2802C25.6078 13.9399 24.8141 15.3587 24.5799 16.8226C24.3452 18.2902 24.6296 19.9489 25.3986 21.4911C26.1654 23.0288 27.3178 24.278 28.6284 25.0292C29.9283 25.7743 31.5356 26.0992 33.0281 25.4461C34.5444 24.7826 35.3485 23.3713 35.5893 21.8993C35.7997 20.6135 35.6108 19.185 35.0666 17.8151C36.0768 18.7508 37.4232 19.3988 38.9 19.17C40.5485 18.916 41.6503 17.6941 42.2153 16.3198C42.2748 16.1752 42.3293 16.0271 42.3789 15.8758C42.4284 16.0271 42.4829 16.1752 42.5423 16.3198C43.1097 17.6998 44.2184 18.9175 45.8715 19.1703C47.4891 19.4189 48.9454 18.6266 49.9813 17.5504C50.0207 17.5095 50.0598 17.4679 50.0984 17.4257C49.4288 18.9118 49.1803 20.4912 49.4107 21.8993C49.6515 23.3713 50.4557 24.7826 51.972 25.4461C53.4644 26.0992 55.0717 25.7743 56.3716 25.0292C57.6822 24.278 58.8346 23.0288 59.6014 21.4911C60.3704 19.9489 60.6548 18.2902 60.4201 16.8226C60.1859 15.3587 59.3923 13.9399 57.894 13.2802L57.894 13.2801L57.8864 13.2768C56.3863 12.6262 54.7743 12.9564 53.4701 13.6966C52.7455 14.1078 52.0672 14.668 51.4728 15.3413C51.7829 14.6789 52.0244 13.9595 52.1839 13.2056L52.1862 13.1946L52.1884 13.1836C52.523 11.4758 52.3936 9.77856 51.8169 8.39895C51.2415 7.02276 50.1336 5.8088 48.4901 5.544L48.4796 5.54231L48.4691 5.54077C46.8594 5.30475 45.4099 6.10377 44.3824 7.18188C43.4852 8.12316 42.7839 9.39021 42.385 10.8184C41.986 9.39002 41.2841 8.12234 40.3843 7.18054C39.352 6.10021 37.8995 5.30597 36.2863 5.5405ZM47.7453 29.9619L47.7453 29.9614C47.7254 29.4941 47.8047 29.281 47.8475 29.189C47.8937 29.09 47.9246 29.051 48.0124 28.9401C48.0555 28.8856 48.1123 28.8137 48.1915 28.709C48.4168 28.4106 48.8487 27.7684 48.644 26.8546C48.4939 26.1846 48.0339 25.6003 47.5744 25.0906L47.5686 25.0842L47.5628 25.0779C47.0695 24.5433 46.7714 24.1335 46.5463 23.8069C46.5187 23.7669 46.4883 23.7218 46.4554 23.6729C46.2775 23.4085 46.025 23.0335 45.7366 22.7578C45.2737 22.3151 44.744 22.1001 44.1395 21.9974C43.611 21.9077 42.9471 21.892 42.1385 21.892C41.2468 21.892 40.3696 21.9992 39.6778 22.4759C38.892 23.0175 38.6729 23.8005 38.5704 24.2646C38.5386 24.4086 38.5125 24.5433 38.4877 24.6716C38.3606 25.3289 38.2667 25.8149 37.6057 26.4819L37.5983 26.4893L37.5911 26.4969C37.1934 26.9095 36.955 27.1234 36.8082 27.2551L36.8043 27.2585C36.7995 27.2628 36.7941 27.2677 36.788 27.2731C36.7291 27.3256 36.613 27.4293 36.5194 27.5335C36.3792 27.6896 36.1582 27.9839 36.0941 28.4241C36.0676 28.6061 36.0768 28.7568 36.0852 28.8432C36.0928 28.9227 36.1054 28.997 36.1089 29.0181L36.1092 29.0202C36.1183 29.076 36.1231 29.1051 36.1272 29.1547C36.1358 29.2575 36.146 29.5177 36.0808 30.0624L36.0807 30.063C35.9957 30.7758 36.1017 31.4858 36.5158 32.1047C36.9061 32.6881 37.4549 33.0133 37.8891 33.2135C38.2606 33.3847 38.683 33.5216 39.0215 33.6312C39.0673 33.646 39.1115 33.6604 39.1538 33.6742C39.4156 33.7598 39.6503 33.8399 39.8675 33.9279C39.8153 34.0102 39.762 34.1085 39.7178 34.2209C39.5821 34.5657 39.5073 35.1351 39.8658 35.6785C40.1507 36.1104 40.5562 36.2736 40.7155 36.3302C40.9111 36.3997 41.1014 36.432 41.2433 36.4504C41.5337 36.4881 41.8978 36.5 42.3193 36.5C42.7788 36.5 43.2066 36.4709 43.5836 36.3852C43.951 36.3017 44.4228 36.1306 44.7971 35.728C45.2088 35.2852 45.3104 34.7743 45.3176 34.4064C45.3232 34.1157 45.2687 33.8335 45.2438 33.7047C45.242 33.6954 45.2404 33.6869 45.239 33.6793C45.222 33.5901 45.2118 33.527 45.2056 33.4838C45.2683 33.4344 45.3854 33.3573 45.5918 33.2617C45.8115 33.1612 45.9379 33.1091 46.0665 33.056C46.1569 33.0187 46.2485 32.981 46.3743 32.9257L46.388 32.9197C46.5733 32.8384 47.0127 32.6457 47.3383 32.2328C47.718 31.7512 47.7623 31.224 47.772 30.935C47.7795 30.7133 47.7665 30.4292 47.7538 30.153C47.7509 30.0886 47.748 30.0246 47.7453 29.9619ZM40.5375 34.2901C40.5366 34.2902 40.5291 34.284 40.5174 34.2711C40.5325 34.2835 40.5383 34.29 40.5375 34.2901ZM41.6099 33.4724C41.6099 33.4724 41.6119 33.4727 41.6157 33.4734C41.6117 33.4728 41.6098 33.4725 41.6099 33.4724ZM45.1417 33.5444C45.1413 33.5443 45.1437 33.5407 45.15 33.5337C45.1452 33.5411 45.1421 33.5445 45.1417 33.5444Z" fill="#FF5B56" stroke="#FAF4F4" stroke-width="3"/>
<path d="M41.4852 17.8954L42.5 16.9631L43.5148 17.8954L45.4702 19.6918L45.4723 19.6938L45.5104 19.7286C48.9403 22.8674 51.9072 25.5824 54.0016 28.1683C56.1211 30.7852 57.5 33.45 57.5 36.5068C57.5 41.5339 53.5725 45.5 48.575 45.5C46.3252 45.5 44.1665 44.6581 42.5 43.2683C40.8335 44.6581 38.6748 45.5 36.425 45.5C31.4275 45.5 27.5 41.5339 27.5 36.5068C27.5 33.45 28.8789 30.7852 30.9984 28.1683C33.0928 25.5824 36.0597 22.8674 39.4896 19.7286L39.5277 19.6938L39.5298 19.6918L41.4852 17.8954Z" fill="#FF5B56" stroke="#FAF4F4" stroke-width="3"/>
<path d="M87.02 30.416V33.74H85.22V32H79.076V33.74H77.276L77.288 30.416H78.296V27.272C78.296 26.464 78.456 25.776 78.776 25.208C79.096 24.632 79.544 24.196 80.12 23.9C80.704 23.604 81.38 23.456 82.148 23.456C82.916 23.456 83.588 23.604 84.164 23.9C84.748 24.196 85.2 24.632 85.52 25.208C85.84 25.776 86 26.464 86 27.272V30.416H87.02ZM84.044 30.416V27.104C84.044 26.448 83.876 25.952 83.54 25.616C83.212 25.28 82.748 25.112 82.148 25.112C81.556 25.112 81.088 25.28 80.744 25.616C80.408 25.952 80.24 26.448 80.24 27.104V30.416H84.044ZM94.6699 25.544V32H92.8819V31.256C92.4179 31.816 91.7459 32.096 90.8659 32.096C90.2579 32.096 89.7059 31.96 89.2099 31.688C88.7219 31.416 88.3379 31.028 88.0579 30.524C87.7779 30.02 87.6379 29.436 87.6379 28.772C87.6379 28.108 87.7779 27.524 88.0579 27.02C88.3379 26.516 88.7219 26.128 89.2099 25.856C89.7059 25.584 90.2579 25.448 90.8659 25.448C91.6899 25.448 92.3339 25.708 92.7979 26.228V25.544H94.6699ZM91.1899 30.56C91.6619 30.56 92.0539 30.4 92.3659 30.08C92.6779 29.752 92.8339 29.316 92.8339 28.772C92.8339 28.228 92.6779 27.796 92.3659 27.476C92.0539 27.148 91.6619 26.984 91.1899 26.984C90.7099 26.984 90.3139 27.148 90.0019 27.476C89.6899 27.796 89.5339 28.228 89.5339 28.772C89.5339 29.316 89.6899 29.752 90.0019 30.08C90.3139 30.4 90.7099 30.56 91.1899 30.56ZM102.811 25.544V32H101.023V31.244C100.783 31.524 100.487 31.736 100.135 31.88C99.7911 32.024 99.4231 32.096 99.0311 32.096C98.1831 32.096 97.5071 31.852 97.0031 31.364C96.5071 30.876 96.2591 30.152 96.2591 29.192V25.544H98.1311V28.916C98.1311 29.956 98.5671 30.476 99.4391 30.476C99.8951 30.476 100.259 30.332 100.531 30.044C100.803 29.748 100.939 29.312 100.939 28.736V25.544H102.811ZM99.4871 24.848C98.0791 24.848 97.3711 24.228 97.3631 22.988H98.5871C98.5951 23.268 98.6711 23.488 98.8151 23.648C98.9671 23.8 99.1871 23.876 99.4751 23.876C99.7631 23.876 99.9831 23.8 100.135 23.648C100.295 23.488 100.375 23.268 100.375 22.988H101.623C101.615 24.228 100.903 24.848 99.4871 24.848ZM114.186 25.544V32H112.314V27.08H110.274L110.214 28.22C110.182 29.068 110.102 29.772 109.974 30.332C109.846 30.892 109.638 31.332 109.35 31.652C109.062 31.972 108.662 32.132 108.15 32.132C107.878 32.132 107.554 32.084 107.178 31.988L107.274 30.452C107.402 30.468 107.494 30.476 107.55 30.476C107.83 30.476 108.038 30.376 108.174 30.176C108.318 29.968 108.414 29.708 108.462 29.396C108.51 29.076 108.546 28.656 108.57 28.136L108.666 25.544H114.186ZM122.502 25.544V32H120.714V31.256C120.25 31.816 119.578 32.096 118.698 32.096C118.09 32.096 117.538 31.96 117.042 31.688C116.554 31.416 116.17 31.028 115.89 30.524C115.61 30.02 115.47 29.436 115.47 28.772C115.47 28.108 115.61 27.524 115.89 27.02C116.17 26.516 116.554 26.128 117.042 25.856C117.538 25.584 118.09 25.448 118.698 25.448C119.522 25.448 120.166 25.708 120.63 26.228V25.544H122.502ZM119.022 30.56C119.494 30.56 119.886 30.4 120.198 30.08C120.51 29.752 120.666 29.316 120.666 28.772C120.666 28.228 120.51 27.796 120.198 27.476C119.886 27.148 119.494 26.984 119.022 26.984C118.542 26.984 118.146 27.148 117.834 27.476C117.522 27.796 117.366 28.228 117.366 28.772C117.366 29.316 117.522 29.752 117.834 30.08C118.146 30.4 118.542 30.56 119.022 30.56ZM130.691 25.544V32H128.819V27.08H126.131V32H124.271V25.544H130.691ZM138.954 25.544V30.92C138.954 32.104 138.654 32.984 138.054 33.56C137.454 34.136 136.582 34.424 135.438 34.424C134.83 34.424 134.254 34.348 133.71 34.196C133.174 34.044 132.722 33.824 132.354 33.536L133.098 32.192C133.37 32.416 133.702 32.592 134.094 32.72C134.486 32.848 134.882 32.912 135.282 32.912C135.906 32.912 136.362 32.768 136.65 32.48C136.938 32.192 137.082 31.752 137.082 31.16V30.944C136.842 31.184 136.558 31.368 136.23 31.496C135.902 31.624 135.55 31.688 135.174 31.688C134.326 31.688 133.654 31.448 133.158 30.968C132.662 30.48 132.414 29.752 132.414 28.784V25.544H134.286V28.508C134.286 29.556 134.722 30.08 135.594 30.08C136.042 30.08 136.402 29.936 136.674 29.648C136.946 29.352 137.082 28.916 137.082 28.34V25.544H138.954Z" fill="#252525"/>
<path d="M79.317 42.056C78.9157 42.056 78.554 41.9743 78.232 41.811C77.9147 41.643 77.665 41.412 77.483 41.118C77.3057 40.824 77.217 40.4903 77.217 40.117C77.217 39.7437 77.3057 39.41 77.483 39.116C77.665 38.822 77.9147 38.5933 78.232 38.43C78.554 38.262 78.9157 38.178 79.317 38.178C79.7137 38.178 80.059 38.262 80.353 38.43C80.6517 38.5933 80.8687 38.829 81.004 39.137L80.157 39.592C79.961 39.2467 79.6787 39.074 79.31 39.074C79.0253 39.074 78.7897 39.1673 78.603 39.354C78.4163 39.5407 78.323 39.795 78.323 40.117C78.323 40.439 78.4163 40.6933 78.603 40.88C78.7897 41.0667 79.0253 41.16 79.31 41.16C79.6833 41.16 79.9657 40.9873 80.157 40.642L81.004 41.104C80.8687 41.4027 80.6517 41.636 80.353 41.804C80.059 41.972 79.7137 42.056 79.317 42.056ZM83.3837 42.056C82.9871 42.056 82.6301 41.9743 82.3127 41.811C82.0001 41.643 81.7551 41.412 81.5777 41.118C81.4004 40.824 81.3117 40.4903 81.3117 40.117C81.3117 39.7437 81.4004 39.41 81.5777 39.116C81.7551 38.822 82.0001 38.5933 82.3127 38.43C82.6301 38.262 82.9871 38.178 83.3837 38.178C83.7804 38.178 84.1351 38.262 84.4477 38.43C84.7604 38.5933 85.0054 38.822 85.1827 39.116C85.3601 39.41 85.4487 39.7437 85.4487 40.117C85.4487 40.4903 85.3601 40.824 85.1827 41.118C85.0054 41.412 84.7604 41.643 84.4477 41.811C84.1351 41.9743 83.7804 42.056 83.3837 42.056ZM83.3837 41.16C83.6637 41.16 83.8924 41.0667 84.0697 40.88C84.2517 40.6887 84.3427 40.4343 84.3427 40.117C84.3427 39.7997 84.2517 39.5477 84.0697 39.361C83.8924 39.1697 83.6637 39.074 83.3837 39.074C83.1037 39.074 82.8727 39.1697 82.6907 39.361C82.5087 39.5477 82.4177 39.7997 82.4177 40.117C82.4177 40.4343 82.5087 40.6887 82.6907 40.88C82.8727 41.0667 83.1037 41.16 83.3837 41.16ZM87.9638 42.056C87.5671 42.056 87.2101 41.9743 86.8928 41.811C86.5801 41.643 86.3351 41.412 86.1578 41.118C85.9805 40.824 85.8918 40.4903 85.8918 40.117C85.8918 39.7437 85.9805 39.41 86.1578 39.116C86.3351 38.822 86.5801 38.5933 86.8928 38.43C87.2101 38.262 87.5671 38.178 87.9638 38.178C88.3605 38.178 88.7151 38.262 89.0278 38.43C89.3405 38.5933 89.5855 38.822 89.7628 39.116C89.9401 39.41 90.0288 39.7437 90.0288 40.117C90.0288 40.4903 89.9401 40.824 89.7628 41.118C89.5855 41.412 89.3405 41.643 89.0278 41.811C88.7151 41.9743 88.3605 42.056 87.9638 42.056ZM87.9638 41.16C88.2438 41.16 88.4725 41.0667 88.6498 40.88C88.8318 40.6887 88.9228 40.4343 88.9228 40.117C88.9228 39.7997 88.8318 39.5477 88.6498 39.361C88.4725 39.1697 88.2438 39.074 87.9638 39.074C87.6838 39.074 87.4528 39.1697 87.2708 39.361C87.0888 39.5477 86.9978 39.7997 86.9978 40.117C86.9978 40.4343 87.0888 40.6887 87.2708 40.88C87.4528 41.0667 87.6838 41.16 87.9638 41.16ZM92.9569 38.493C93.3162 38.493 93.6312 38.5677 93.9019 38.717C94.1725 38.8617 94.3802 39.067 94.5249 39.333C94.6742 39.599 94.7489 39.907 94.7489 40.257C94.7489 40.6163 94.6602 40.936 94.4829 41.216C94.3102 41.4913 94.0675 41.706 93.7549 41.86C93.4422 42.0093 93.0875 42.084 92.6909 42.084C92.0329 42.084 91.5149 41.874 91.1369 41.454C90.7635 41.0293 90.5769 40.4087 90.5769 39.592C90.5769 38.836 90.7402 38.234 91.0669 37.786C91.3982 37.3333 91.9045 37.037 92.5859 36.897L94.3779 36.54L94.5249 37.478L92.9429 37.793C92.5135 37.877 92.1939 38.017 91.9839 38.213C91.7785 38.409 91.6572 38.6867 91.6199 39.046C91.7832 38.8687 91.9792 38.7333 92.2079 38.64C92.4365 38.542 92.6862 38.493 92.9569 38.493ZM92.6979 41.237C92.9779 41.237 93.2019 41.146 93.3699 40.964C93.5425 40.782 93.6289 40.551 93.6289 40.271C93.6289 39.9863 93.5425 39.76 93.3699 39.592C93.2019 39.424 92.9779 39.34 92.6979 39.34C92.4132 39.34 92.1845 39.424 92.0119 39.592C91.8392 39.76 91.7529 39.9863 91.7529 40.271C91.7529 40.5557 91.8415 40.789 92.0189 40.971C92.1962 41.1483 92.4225 41.237 92.6979 41.237ZM101.237 38.234V42H95.4898V38.234H96.5748V41.104H97.8278V38.234H98.9128V41.104H100.152V38.234H101.237ZM101.762 41.104V42.749H100.747V42H100.124V41.104H101.762ZM104.161 41.181C104.357 41.181 104.529 41.153 104.679 41.097C104.833 41.0363 104.975 40.943 105.106 40.817L105.687 41.447C105.332 41.853 104.814 42.056 104.133 42.056C103.708 42.056 103.332 41.9743 103.006 41.811C102.679 41.643 102.427 41.412 102.25 41.118C102.072 40.824 101.984 40.4903 101.984 40.117C101.984 39.7483 102.07 39.417 102.243 39.123C102.42 38.8243 102.66 38.5933 102.964 38.43C103.272 38.262 103.617 38.178 104 38.178C104.359 38.178 104.686 38.255 104.98 38.409C105.274 38.5583 105.507 38.7777 105.68 39.067C105.857 39.3517 105.946 39.69 105.946 40.082L103.16 40.621C103.239 40.8077 103.363 40.9477 103.531 41.041C103.703 41.1343 103.913 41.181 104.161 41.181ZM104 39.004C103.724 39.004 103.5 39.0927 103.328 39.27C103.155 39.4473 103.064 39.6923 103.055 40.005L104.889 39.648C104.837 39.452 104.732 39.2957 104.574 39.179C104.415 39.0623 104.224 39.004 104 39.004ZM108.493 42.056C108.091 42.056 107.73 41.9743 107.408 41.811C107.09 41.643 106.841 41.412 106.659 41.118C106.481 40.824 106.393 40.4903 106.393 40.117C106.393 39.7437 106.481 39.41 106.659 39.116C106.841 38.822 107.09 38.5933 107.408 38.43C107.73 38.262 108.091 38.178 108.493 38.178C108.889 38.178 109.235 38.262 109.529 38.43C109.827 38.5933 110.044 38.829 110.18 39.137L109.333 39.592C109.137 39.2467 108.854 39.074 108.486 39.074C108.201 39.074 107.965 39.1673 107.779 39.354C107.592 39.5407 107.499 39.795 107.499 40.117C107.499 40.439 107.592 40.6933 107.779 40.88C107.965 41.0667 108.201 41.16 108.486 41.16C108.859 41.16 109.141 40.9873 109.333 40.642L110.18 41.104C110.044 41.4027 109.827 41.636 109.529 41.804C109.235 41.972 108.889 42.056 108.493 42.056ZM115.659 38.178C116.131 38.178 116.504 38.318 116.779 38.598C117.059 38.8733 117.199 39.2887 117.199 39.844V42H116.107V40.012C116.107 39.7133 116.044 39.4917 115.918 39.347C115.797 39.1977 115.622 39.123 115.393 39.123C115.137 39.123 114.934 39.207 114.784 39.375C114.635 39.5383 114.56 39.7833 114.56 40.11V42H113.468V40.012C113.468 39.4193 113.23 39.123 112.754 39.123C112.502 39.123 112.302 39.207 112.152 39.375C112.003 39.5383 111.928 39.7833 111.928 40.11V42H110.836V38.234H111.879V38.668C112.019 38.5093 112.19 38.388 112.39 38.304C112.596 38.22 112.82 38.178 113.062 38.178C113.328 38.178 113.569 38.2317 113.783 38.339C113.998 38.4417 114.171 38.5933 114.301 38.794C114.455 38.598 114.649 38.4463 114.882 38.339C115.12 38.2317 115.379 38.178 115.659 38.178ZM121.028 40.033C121.471 40.1823 121.693 40.481 121.693 40.929C121.693 41.2697 121.565 41.5333 121.308 41.72C121.051 41.9067 120.669 42 120.16 42H118.151V38.234H120.076C120.547 38.234 120.916 38.3203 121.182 38.493C121.448 38.661 121.581 38.899 121.581 39.207C121.581 39.3937 121.532 39.5593 121.434 39.704C121.341 39.844 121.205 39.9537 121.028 40.033ZM119.152 39.781H119.978C120.361 39.781 120.552 39.6457 120.552 39.375C120.552 39.109 120.361 38.976 119.978 38.976H119.152V39.781ZM120.069 41.258C120.47 41.258 120.671 41.1203 120.671 40.845C120.671 40.7003 120.624 40.5953 120.531 40.53C120.438 40.46 120.291 40.425 120.09 40.425H119.152V41.258H120.069ZM124.269 42.056C123.873 42.056 123.516 41.9743 123.198 41.811C122.886 41.643 122.641 41.412 122.463 41.118C122.286 40.824 122.197 40.4903 122.197 40.117C122.197 39.7437 122.286 39.41 122.463 39.116C122.641 38.822 122.886 38.5933 123.198 38.43C123.516 38.262 123.873 38.178 124.269 38.178C124.666 38.178 125.021 38.262 125.333 38.43C125.646 38.5933 125.891 38.822 126.068 39.116C126.246 39.41 126.334 39.7437 126.334 40.117C126.334 40.4903 126.246 40.824 126.068 41.118C125.891 41.412 125.646 41.643 125.333 41.811C125.021 41.9743 124.666 42.056 124.269 42.056ZM124.269 41.16C124.549 41.16 124.778 41.0667 124.955 40.88C125.137 40.6887 125.228 40.4343 125.228 40.117C125.228 39.7997 125.137 39.5477 124.955 39.361C124.778 39.1697 124.549 39.074 124.269 39.074C123.989 39.074 123.758 39.1697 123.576 39.361C123.394 39.5477 123.303 39.7997 123.303 40.117C123.303 40.4343 123.394 40.6887 123.576 40.88C123.758 41.0667 123.989 41.16 124.269 41.16ZM132.911 38.234V41.37C132.911 42.0607 132.731 42.574 132.372 42.91C132.013 43.246 131.488 43.414 130.797 43.414C130.433 43.414 130.088 43.3697 129.761 43.281C129.434 43.1923 129.164 43.064 128.949 42.896L129.383 42.112C129.542 42.2427 129.742 42.3453 129.985 42.42C130.228 42.4993 130.47 42.539 130.713 42.539C131.091 42.539 131.369 42.4527 131.546 42.28C131.728 42.112 131.819 41.8553 131.819 41.51V41.349C131.534 41.6617 131.138 41.818 130.629 41.818C130.284 41.818 129.966 41.7433 129.677 41.594C129.392 41.44 129.166 41.2253 128.998 40.95C128.83 40.6747 128.746 40.3573 128.746 39.998C128.746 39.6387 128.83 39.3213 128.998 39.046C129.166 38.7707 129.392 38.5583 129.677 38.409C129.966 38.255 130.284 38.178 130.629 38.178C131.175 38.178 131.59 38.3577 131.875 38.717V38.234H132.911ZM130.846 40.922C131.135 40.922 131.371 40.838 131.553 40.67C131.74 40.4973 131.833 40.2733 131.833 39.998C131.833 39.7227 131.74 39.501 131.553 39.333C131.371 39.1603 131.135 39.074 130.846 39.074C130.557 39.074 130.319 39.1603 130.132 39.333C129.945 39.501 129.852 39.7227 129.852 39.998C129.852 40.2733 129.945 40.4973 130.132 40.67C130.319 40.838 130.557 40.922 130.846 40.922ZM135.727 42.056C135.33 42.056 134.973 41.9743 134.656 41.811C134.343 41.643 134.098 41.412 133.921 41.118C133.743 40.824 133.655 40.4903 133.655 40.117C133.655 39.7437 133.743 39.41 133.921 39.116C134.098 38.822 134.343 38.5933 134.656 38.43C134.973 38.262 135.33 38.178 135.727 38.178C136.123 38.178 136.478 38.262 136.791 38.43C137.103 38.5933 137.348 38.822 137.526 39.116C137.703 39.41 137.792 39.7437 137.792 40.117C137.792 40.4903 137.703 40.824 137.526 41.118C137.348 41.412 137.103 41.643 136.791 41.811C136.478 41.9743 136.123 42.056 135.727 42.056ZM135.727 41.16C136.007 41.16 136.235 41.0667 136.413 40.88C136.595 40.6887 136.686 40.4343 136.686 40.117C136.686 39.7997 136.595 39.5477 136.413 39.361C136.235 39.1697 136.007 39.074 135.727 39.074C135.447 39.074 135.216 39.1697 135.034 39.361C134.852 39.5477 134.761 39.7997 134.761 40.117C134.761 40.4343 134.852 40.6887 135.034 40.88C135.216 41.0667 135.447 41.16 135.727 41.16ZM138.543 38.234H139.628V39.704H141.266V38.234H142.358V42H141.266V40.593H139.628V42H138.543V38.234ZM145.167 42.056C144.77 42.056 144.413 41.9743 144.096 41.811C143.783 41.643 143.538 41.412 143.361 41.118C143.184 40.824 143.095 40.4903 143.095 40.117C143.095 39.7437 143.184 39.41 143.361 39.116C143.538 38.822 143.783 38.5933 144.096 38.43C144.413 38.262 144.77 38.178 145.167 38.178C145.564 38.178 145.918 38.262 146.231 38.43C146.544 38.5933 146.789 38.822 146.966 39.116C147.143 39.41 147.232 39.7437 147.232 40.117C147.232 40.4903 147.143 40.824 146.966 41.118C146.789 41.412 146.544 41.643 146.231 41.811C145.918 41.9743 145.564 42.056 145.167 42.056ZM145.167 41.16C145.447 41.16 145.676 41.0667 145.853 40.88C146.035 40.6887 146.126 40.4343 146.126 40.117C146.126 39.7997 146.035 39.5477 145.853 39.361C145.676 39.1697 145.447 39.074 145.167 39.074C144.887 39.074 144.656 39.1697 144.474 39.361C144.292 39.5477 144.201 39.7997 144.201 40.117C144.201 40.4343 144.292 40.6887 144.474 40.88C144.656 41.0667 144.887 41.16 145.167 41.16ZM149.915 38.178C150.316 38.178 150.666 38.2573 150.965 38.416C151.264 38.5747 151.495 38.801 151.658 39.095C151.821 39.389 151.903 39.732 151.903 40.124C151.903 40.5067 151.826 40.845 151.672 41.139C151.518 41.4283 151.301 41.6547 151.021 41.818C150.741 41.9767 150.419 42.056 150.055 42.056C149.574 42.056 149.199 41.9043 148.928 41.601V43.358H147.836V40.131C147.836 39.7437 147.922 39.403 148.095 39.109C148.268 38.815 148.51 38.5863 148.823 38.423C149.136 38.2597 149.5 38.178 149.915 38.178ZM149.866 41.16C150.151 41.16 150.382 41.0643 150.559 40.873C150.736 40.6817 150.825 40.432 150.825 40.124C150.825 39.8113 150.736 39.5593 150.559 39.368C150.382 39.172 150.151 39.074 149.866 39.074C149.581 39.074 149.35 39.1697 149.173 39.361C149 39.5523 148.914 39.8043 148.914 40.117C148.914 40.4297 149 40.6817 149.173 40.873C149.346 41.0643 149.577 41.16 149.866 41.16ZM154.436 42.056C154.04 42.056 153.683 41.9743 153.365 41.811C153.053 41.643 152.808 41.412 152.63 41.118C152.453 40.824 152.364 40.4903 152.364 40.117C152.364 39.7437 152.453 39.41 152.63 39.116C152.808 38.822 153.053 38.5933 153.365 38.43C153.683 38.262 154.04 38.178 154.436 38.178C154.833 38.178 155.188 38.262 155.5 38.43C155.813 38.5933 156.058 38.822 156.235 39.116C156.413 39.41 156.501 39.7437 156.501 40.117C156.501 40.4903 156.413 40.824 156.235 41.118C156.058 41.412 155.813 41.643 155.5 41.811C155.188 41.9743 154.833 42.056 154.436 42.056ZM154.436 41.16C154.716 41.16 154.945 41.0667 155.122 40.88C155.304 40.6887 155.395 40.4343 155.395 40.117C155.395 39.7997 155.304 39.5477 155.122 39.361C154.945 39.1697 154.716 39.074 154.436 39.074C154.156 39.074 153.925 39.1697 153.743 39.361C153.561 39.5477 153.47 39.7997 153.47 40.117C153.47 40.4343 153.561 40.6887 153.743 40.88C153.925 41.0667 154.156 41.16 154.436 41.16ZM160.13 40.033C160.573 40.1823 160.795 40.481 160.795 40.929C160.795 41.2697 160.666 41.5333 160.41 41.72C160.153 41.9067 159.77 42 159.262 42H157.253V38.234H159.178C159.649 38.234 160.018 38.3203 160.284 38.493C160.55 38.661 160.683 38.899 160.683 39.207C160.683 39.3937 160.634 39.5593 160.536 39.704C160.442 39.844 160.307 39.9537 160.13 40.033ZM158.254 39.781H159.08C159.462 39.781 159.654 39.6457 159.654 39.375C159.654 39.109 159.462 38.976 159.08 38.976H158.254V39.781ZM159.171 41.258C159.572 41.258 159.773 41.1203 159.773 40.845C159.773 40.7003 159.726 40.5953 159.633 40.53C159.539 40.46 159.392 40.425 159.192 40.425H158.254V41.258H159.171ZM167.32 40.572H166.795V42H165.717V40.572H165.192L164.394 42H163.106L164.289 40.054L163.19 38.234H164.345L165.178 39.697H165.717V38.234H166.795V39.697H167.327L168.167 38.234H169.322L168.223 40.054L169.413 42H168.118L167.32 40.572ZM173.63 38.234V42H172.587V41.559C172.447 41.7223 172.274 41.846 172.069 41.93C171.868 42.014 171.653 42.056 171.425 42.056C170.93 42.056 170.536 41.9137 170.242 41.629C169.952 41.3443 169.808 40.922 169.808 40.362V38.234H170.9V40.201C170.9 40.8077 171.154 41.111 171.663 41.111C171.929 41.111 172.141 41.027 172.3 40.859C172.458 40.6863 172.538 40.432 172.538 40.096V38.234H173.63ZM177.548 40.033C177.991 40.1823 178.213 40.481 178.213 40.929C178.213 41.2697 178.084 41.5333 177.828 41.72C177.571 41.9067 177.188 42 176.68 42H174.671V38.234H176.596C177.067 38.234 177.436 38.3203 177.702 38.493C177.968 38.661 178.101 38.899 178.101 39.207C178.101 39.3937 178.052 39.5593 177.954 39.704C177.86 39.844 177.725 39.9537 177.548 40.033ZM175.672 39.781H176.498C176.88 39.781 177.072 39.6457 177.072 39.375C177.072 39.109 176.88 38.976 176.498 38.976H175.672V39.781ZM176.589 41.258C176.99 41.258 177.191 41.1203 177.191 40.845C177.191 40.7003 177.144 40.5953 177.051 40.53C176.957 40.46 176.81 40.425 176.61 40.425H175.672V41.258H176.589ZM180.789 42.056C180.392 42.056 180.035 41.9743 179.718 41.811C179.405 41.643 179.16 41.412 178.983 41.118C178.806 40.824 178.717 40.4903 178.717 40.117C178.717 39.7437 178.806 39.41 178.983 39.116C179.16 38.822 179.405 38.5933 179.718 38.43C180.035 38.262 180.392 38.178 180.789 38.178C181.186 38.178 181.54 38.262 181.853 38.43C182.166 38.5933 182.411 38.822 182.588 39.116C182.765 39.41 182.854 39.7437 182.854 40.117C182.854 40.4903 182.765 40.824 182.588 41.118C182.411 41.412 182.166 41.643 181.853 41.811C181.54 41.9743 181.186 42.056 180.789 42.056ZM180.789 41.16C181.069 41.16 181.298 41.0667 181.475 40.88C181.657 40.6887 181.748 40.4343 181.748 40.117C181.748 39.7997 181.657 39.5477 181.475 39.361C181.298 39.1697 181.069 39.074 180.789 39.074C180.509 39.074 180.278 39.1697 180.096 39.361C179.914 39.5477 179.823 39.7997 179.823 40.117C179.823 40.4343 179.914 40.6887 180.096 40.88C180.278 41.0667 180.509 41.16 180.789 41.16ZM188.421 38.178C188.892 38.178 189.266 38.318 189.541 38.598C189.821 38.8733 189.961 39.2887 189.961 39.844V42H188.869V40.012C188.869 39.7133 188.806 39.4917 188.68 39.347C188.559 39.1977 188.384 39.123 188.155 39.123C187.898 39.123 187.695 39.207 187.546 39.375C187.397 39.5383 187.322 39.7833 187.322 40.11V42H186.23V40.012C186.23 39.4193 185.992 39.123 185.516 39.123C185.264 39.123 185.063 39.207 184.914 39.375C184.765 39.5383 184.69 39.7833 184.69 40.11V42H183.598V38.234H184.641V38.668C184.781 38.5093 184.951 38.388 185.152 38.304C185.357 38.22 185.581 38.178 185.824 38.178C186.09 38.178 186.33 38.2317 186.545 38.339C186.76 38.4417 186.932 38.5933 187.063 38.794C187.217 38.598 187.411 38.4463 187.644 38.339C187.882 38.2317 188.141 38.178 188.421 38.178ZM190.913 38.234H191.998V39.704H193.636V38.234H194.728V42H193.636V40.593H191.998V42H190.913V38.234ZM197.481 42.105C196.884 42.105 196.436 41.972 196.137 41.706C195.838 41.44 195.689 41.048 195.689 40.53V38.234H196.774V39.508C196.881 39.4333 197.021 39.3703 197.194 39.319C197.371 39.2677 197.572 39.242 197.796 39.242C198.258 39.242 198.62 39.3587 198.881 39.592C199.142 39.8253 199.273 40.166 199.273 40.614C199.273 41.09 199.112 41.4587 198.79 41.72C198.468 41.9767 198.032 42.105 197.481 42.105ZM199.672 38.234H200.764V42H199.672V38.234ZM197.481 41.335C197.705 41.335 197.875 41.2697 197.992 41.139C198.109 41.0083 198.167 40.838 198.167 40.628C198.167 40.432 198.106 40.2757 197.985 40.159C197.868 40.0377 197.698 39.977 197.474 39.977C197.315 39.977 197.175 40.0097 197.054 40.075C196.937 40.1357 196.844 40.2197 196.774 40.327V40.635C196.774 40.8543 196.835 41.027 196.956 41.153C197.077 41.2743 197.252 41.335 197.481 41.335ZM205.484 42V39.746L204.357 41.636H203.895L202.796 39.739V42H201.809V38.234H202.95L204.154 40.411L205.435 38.234H206.457L206.471 42H205.484Z" fill="#FF5B56"/>
</svg>
