<svg width="15" height="20" viewBox="0 0 15 20" fill="none" xmlns="http://www.w3.org/2000/svg">
<path opacity="0.9" d="M8.06087 0.18691C7.89647 0.0652522 7.70066 0 7.5 0C7.29934 0 7.10354 0.0652522 6.93913 0.18691C5.67859 1.1693 4.5253 2.29694 3.50054 3.54901C1.2106 6.33006 0 9.2775 0 12.0689C0 14.1724 0.790176 16.1897 2.1967 17.677C3.60322 19.1644 5.51088 20 7.5 20C9.48912 20 11.3968 19.1644 12.8033 17.677C14.2098 16.1897 15 14.1724 15 12.0689C15 5.39988 8.34457 0.396394 8.06087 0.18691ZM7.5 17.931C6.03024 17.9294 4.62111 17.3113 3.58184 16.2123C2.54256 15.1133 1.95803 13.6231 1.95652 12.0689C1.95652 9.19733 3.58696 6.60593 4.94837 4.93867C5.72565 3.99451 6.57944 3.12395 7.5 2.33693C8.42056 3.12395 9.27435 3.99451 10.0516 4.93867C11.413 6.60593 13.0435 9.19733 13.0435 12.0689C13.042 13.6231 12.4574 15.1133 11.4182 16.2123C10.3789 17.3113 8.96976 17.9294 7.5 17.931ZM11.5451 13.4137C11.3403 14.1022 10.9814 14.7281 10.4988 15.2384C10.0163 15.7487 9.42436 16.1282 8.77337 16.3448C8.67834 16.376 8.57941 16.392 8.47989 16.3922C8.24604 16.3924 8.01987 16.304 7.84236 16.143C7.66484 15.982 7.54773 15.7591 7.51225 15.5147C7.47676 15.2703 7.52525 15.0205 7.64893 14.8106C7.7726 14.6007 7.96328 14.4447 8.18641 14.3706C8.53724 14.2541 8.85625 14.0496 9.11628 13.7746C9.37631 13.4997 9.56967 13.1623 9.67989 12.7913C9.71843 12.6617 9.78074 12.5414 9.86325 12.4372C9.94577 12.333 10.0469 12.2471 10.1608 12.1843C10.3909 12.0573 10.6592 12.0323 10.9068 12.1146C11.0294 12.1553 11.1432 12.2212 11.2417 12.3085C11.3402 12.3958 11.4214 12.5027 11.4809 12.6231C11.5403 12.7436 11.5767 12.8753 11.588 13.0107C11.5993 13.146 11.5853 13.2824 11.5467 13.412L11.5451 13.4137Z" fill="#252525"/>
</svg>
