<svg width="28" height="37" viewBox="0 0 28 37" fill="none" xmlns="http://www.w3.org/2000/svg">
<path d="M27 16.0766V31.9C27 32.9343 26.5891 33.9263 25.8577 34.6577C25.1263 35.3891 24.1343 35.8 23.1 35.8H4.9C3.86566 35.8 2.87368 35.3891 2.14228 34.6577C1.41089 33.9263 1 32.9343 1 31.9V5.9C1 4.86566 1.41089 3.87368 2.14228 3.14228C2.87368 2.41089 3.86566 2 4.9 2H12.9234C13.6128 2.0001 14.2738 2.27394 14.7613 2.76131L26.2387 14.2387C26.7261 14.7262 26.9999 15.3872 27 16.0766Z" stroke="#252525" stroke-width="1.54762" stroke-linejoin="round"/>
<path d="M14.0005 1.6499V11.3999C14.0005 12.0895 14.2744 12.7508 14.762 13.2384C15.2496 13.726 15.9109 13.9999 16.6005 13.9999H26.3505" stroke="#252525" stroke-width="1.54762" stroke-linecap="round" stroke-linejoin="round"/>
<path d="M14.3096 18.9524V28.2381" stroke="#252525" stroke-width="1.85714" stroke-linecap="round" stroke-linejoin="round"/>
<path d="M9.6665 23.5952H18.9522" stroke="#252525" stroke-width="1.85714" stroke-linecap="round" stroke-linejoin="round"/>
</svg>
