<svg width="10" height="18" viewBox="0 0 10 18" fill="none" xmlns="http://www.w3.org/2000/svg">
<path d="M9.23 8.1071L9.23 8.10711C9.38345 8.26668 9.46881 8.47994 9.46881 8.70139C9.46881 8.92283 9.38345 9.13609 9.23 9.29567L9.23 9.29567L2.07159 16.7398C2.07124 16.7402 2.07089 16.7405 2.07054 16.7409C1.9937 16.8222 1.90158 16.8876 1.79938 16.9331C1.6967 16.9788 1.58598 17.0035 1.47364 17.0056C1.36129 17.0078 1.2497 16.9874 1.14535 16.9457C1.041 16.904 0.946065 16.8418 0.865953 16.7629C0.785849 16.6841 0.722156 16.5901 0.678418 16.4865C0.634682 16.3829 0.611725 16.2716 0.610802 16.1591C0.609877 16.0467 0.631006 15.9351 0.67303 15.8307C0.714871 15.7269 0.776644 15.6322 0.854943 15.5523C0.855287 15.5519 0.85563 15.5516 0.855973 15.5512L7.44354 8.70139L0.855973 1.85156C0.85563 1.85122 0.855287 1.85087 0.854944 1.85052C0.776645 1.77055 0.714871 1.67588 0.673029 1.57202C0.631006 1.46772 0.609877 1.35611 0.610802 1.24364C0.611725 1.13116 0.634682 1.01992 0.678418 0.91632C0.722157 0.812714 0.785849 0.718719 0.865954 0.639854C0.946065 0.560985 1.041 0.498816 1.14535 0.457094C1.2497 0.41537 1.36129 0.394964 1.47363 0.397128C1.58598 0.399293 1.6967 0.423981 1.79938 0.46968C1.90161 0.515181 1.99375 0.580571 2.0706 0.661949L9.23 8.1071Z" fill="#FF5B56" stroke="#FF5B56" stroke-width="0.5"/>
</svg>
