<svg width="1372" height="561" viewBox="0 0 1372 561" fill="none" xmlns="http://www.w3.org/2000/svg">
<path d="M45.8333 397.8C46.1695 398.223 46.5338 398.612 46.9262 398.967L47.0385 398.831L46.9543 398.933L47.0851 399.051C54.2785 405.556 68.3853 402.933 79.6468 392.689C91.657 381.817 95.9484 366.457 89.2843 358.412C88.9154 357.959 88.4857 357.511 88.0606 357.127C80.8671 350.622 66.7604 353.245 55.4988 363.489C43.4604 374.396 39.1693 389.755 45.8334 397.8L45.8333 397.8ZM32.2682 332.624C33.0195 334.135 34 335.437 35.2426 336.561L35.3734 336.679C41.8992 342.402 54.4327 342.513 66.2563 336.222C80.4045 328.708 88.14 314.919 83.5061 305.384C82.7547 303.874 81.7742 302.571 80.5316 301.448C74.0574 295.593 61.3979 295.427 49.4852 301.757C35.3695 309.301 27.6669 323.119 32.268 332.624L32.2682 332.624ZM105.152 323.713C101.999 346.753 101.318 355.875 111.716 365.278C122.114 374.681 130.704 372.651 152.009 366.085C170.236 360.478 186.835 373.648 199.632 366.455C201.989 365.261 204.094 363.543 205.92 361.334C213.136 352.598 212.175 339.378 203.805 331.809C193.407 322.406 172.509 317.76 160.15 306.584C147.792 295.408 140.437 274.505 130.037 265.101C121.666 257.531 109.057 258.48 101.841 267.215C100.016 269.425 98.7279 271.882 97.9402 274.495C92.9627 288.818 107.816 304.031 105.152 323.713L105.152 323.713ZM122.822 388.623C122.397 388.238 121.911 387.858 121.43 387.542C112.823 381.778 98.9519 388.474 90.4072 402.481C82.3547 415.686 81.944 430.635 89.1049 437.111C89.53 437.495 90.0158 437.875 90.497 438.192C99.1032 443.955 112.975 437.26 121.519 423.252C129.544 410.081 129.983 395.098 122.822 388.623ZM172.411 385.783C162.723 382.366 150.803 392.37 145.744 408.104C141.483 421.353 143.472 434.434 149.947 440.289C151.189 441.413 152.563 442.239 154.1 442.798C163.789 446.215 175.709 436.211 180.767 420.476C185.029 407.228 183.039 394.146 176.565 388.292C175.323 387.168 173.949 386.342 172.411 385.783Z" fill="#FFC5C5" fill-opacity="0.4"/>
<path d="M519.591 16.9931C519.087 16.8311 518.578 16.7135 518.063 16.6403L518.041 16.8178L518.058 16.6847L517.886 16.6603C508.451 15.3182 498.086 25.5393 494.125 40.5097C489.872 56.432 494.425 71.7105 504.235 74.6412C504.782 74.8093 505.377 74.9391 505.934 75.0184C515.37 76.3606 525.734 66.1394 529.696 51.169C533.953 35.2021 529.401 19.924 519.591 16.9932L519.591 16.9931ZM565.383 63.7409C563.958 62.906 562.452 62.3756 560.822 62.1438L560.65 62.1194C552.185 61.0507 541.684 68.0917 535.163 80.0787C527.352 94.411 528.204 110.337 537.11 115.668C538.536 116.503 540.042 117.033 541.672 117.265C550.164 118.473 560.799 111.406 567.374 99.3363C575.142 84.9979 574.247 69.0654 565.383 63.741L565.383 63.7409ZM509.377 112.671C499.812 91.6216 495.552 83.6102 481.913 81.6702C468.274 79.7302 462.192 86.3159 447.917 103.928C435.698 118.989 414.9 117.43 408.045 130.724C406.712 133.064 405.868 135.698 405.517 138.583C404.127 149.991 411.923 160.492 422.903 162.054C436.542 163.994 456.411 155.983 472.621 158.288C488.832 160.594 506.021 173.877 519.662 175.817C530.642 177.379 540.645 169.409 542.034 158.002C542.386 155.117 542.158 152.33 541.431 149.698C537.999 134.895 517.574 130.635 509.378 112.671L509.377 112.671ZM460.307 68.4818C460.864 68.5611 461.47 68.6021 462.038 68.5927C472.258 68.5111 480.272 55.0203 479.978 38.451C479.699 22.8325 472.13 10.1054 462.737 8.76937C462.18 8.69006 461.574 8.64905 461.006 8.65851C450.786 8.74012 442.772 22.2308 443.066 38.8002C443.35 54.3745 450.914 67.1458 460.307 68.4818ZM420.495 99.0795C430.375 96.4207 435.012 81.2756 430.9 65.2472C427.439 51.7499 418.859 41.9498 410.367 40.7419C408.737 40.5101 407.155 40.6012 405.578 41.0091C395.699 43.6679 391.061 58.813 395.174 74.8414C398.635 88.3387 407.215 98.1388 415.707 99.3467C417.336 99.5785 418.918 99.4874 420.495 99.0795Z" fill="#FFC5C5" fill-opacity="0.4"/>
<path d="M504.439 313.695C504.13 313.596 503.818 313.524 503.502 313.479L503.489 313.588L503.499 313.506L503.393 313.491C497.604 312.667 491.245 318.939 488.815 328.124C486.206 337.893 488.999 347.267 495.018 349.065C495.353 349.168 495.718 349.248 496.06 349.297C501.85 350.12 508.209 343.849 510.639 334.664C513.252 324.867 510.458 315.493 504.439 313.695L504.439 313.695ZM532.535 342.377C531.661 341.865 530.737 341.54 529.737 341.397L529.631 341.382C524.437 340.727 517.995 345.047 513.993 352.401C509.201 361.195 509.724 370.966 515.189 374.237C516.063 374.749 516.987 375.075 517.987 375.217C523.198 375.958 529.722 371.622 533.757 364.217C538.523 355.419 537.973 345.644 532.535 342.377L532.535 342.377ZM498.173 372.398C492.304 359.483 489.69 354.568 481.322 353.378C472.954 352.187 469.222 356.228 460.464 367.034C452.967 376.274 440.206 375.318 436 383.475C435.183 384.91 434.665 386.527 434.449 388.297C433.597 395.296 438.38 401.739 445.117 402.697C453.485 403.887 465.675 398.972 475.621 400.387C485.567 401.801 496.114 409.951 504.483 411.141C511.22 412.1 517.357 407.21 518.209 400.211C518.425 398.441 518.285 396.731 517.84 395.116C515.733 386.034 503.202 383.42 498.173 372.398L498.173 372.398ZM468.066 345.286C468.408 345.335 468.779 345.36 469.128 345.354C475.399 345.304 480.315 337.027 480.135 326.861C479.964 317.278 475.32 309.469 469.557 308.649C469.215 308.601 468.843 308.576 468.495 308.581C462.224 308.632 457.307 316.909 457.488 327.075C457.662 336.63 462.303 344.466 468.066 345.286ZM443.639 364.059C449.701 362.428 452.546 353.136 450.023 343.301C447.9 335.02 442.635 329.007 437.425 328.266C436.425 328.124 435.455 328.18 434.487 328.43C428.426 330.061 425.58 339.354 428.103 349.188C430.227 357.469 435.491 363.482 440.701 364.223C441.701 364.365 442.672 364.309 443.639 364.059Z" fill="#FFC5C5" fill-opacity="0.4"/>
<path d="M767.145 173.816C767.034 173.503 766.901 173.204 766.744 172.918L766.652 172.975L766.721 172.933L766.669 172.837C763.797 167.609 755.086 166.278 746.499 169.944C737.351 173.823 731.784 181.867 734.04 187.883C734.163 188.22 734.323 188.566 734.493 188.875C737.364 194.104 746.076 195.435 754.663 191.769C763.834 187.875 769.4 179.832 767.145 173.816L767.145 173.816ZM761.961 214.375C761.828 213.346 761.52 212.392 761.024 211.489L760.972 211.394C758.331 206.754 751.08 204.155 742.959 205.414C733.243 206.912 725.992 213.348 726.771 219.817C726.905 220.846 727.213 221.8 727.709 222.703C730.293 227.409 737.607 230.065 745.787 228.802C755.49 227.28 762.728 220.82 761.962 214.375L761.961 214.375ZM717.881 204.806C724.326 192.076 726.548 186.921 722.398 179.363C718.247 171.804 712.856 171.245 699.177 170.746C687.476 170.313 680.482 159.315 671.615 160.901C670.008 161.117 668.442 161.688 666.941 162.601C661.003 166.209 658.913 174.074 662.254 180.159C666.405 187.717 677.601 194.639 682.534 203.622C687.467 212.605 687.549 226.221 691.7 233.78C695.041 239.865 702.549 241.864 708.486 238.255C709.988 237.342 711.227 236.177 712.208 234.82C717.965 227.517 712.393 215.687 717.881 204.806L717.881 204.806ZM720.629 163.572C720.799 163.881 721.005 164.2 721.22 164.481C725.06 169.565 734.451 168.486 742.215 162.087C749.533 156.054 752.766 147.463 749.908 142.258C749.738 141.949 749.532 141.63 749.316 141.349C745.476 136.265 736.086 137.345 728.321 143.744C721.026 149.763 717.771 158.367 720.629 163.572ZM691.283 155.192C696.221 159.133 705.142 155.74 711.229 147.633C716.356 140.808 717.822 132.816 715.237 128.11C714.741 127.207 714.11 126.45 713.329 125.814C708.392 121.873 699.47 125.266 693.383 133.373C688.257 140.198 686.791 148.19 689.375 152.896C689.871 153.799 690.503 154.556 691.283 155.192Z" fill="#FFC5C5" fill-opacity="0.4"/>
<path d="M1014.63 267.433C1015.23 267.221 1015.81 266.961 1016.36 266.654L1016.27 266.465L1016.34 266.607L1016.52 266.504C1026.65 260.878 1030.15 243.276 1024.27 225.744C1018.05 207.069 1003.61 195.495 992.076 199.845C991.43 200.083 990.762 200.394 990.163 200.727C980.031 206.353 976.533 223.955 982.416 241.487C988.659 260.21 1003.1 271.783 1014.63 267.433L1014.63 267.433ZM939.203 255.447C941.146 255.214 942.97 254.625 944.72 253.653L944.904 253.551C953.906 248.37 959.613 233.774 958.188 217.274C956.497 197.535 945.268 182.608 933.053 183.95C931.109 184.183 929.286 184.772 927.536 185.744C918.417 190.808 912.596 205.528 914.022 222.149C915.758 241.863 927.033 256.764 939.203 255.447L939.203 255.447ZM962.215 166.488C985.335 180.011 994.742 184.703 1009.39 176.57C1024.03 168.437 1025.7 157.534 1028.21 129.839C1030.37 106.148 1051.79 92.3799 1049.84 74.3567C1049.62 71.0929 1048.73 67.8992 1047.19 64.8234C1041.11 52.6617 1026.61 48.1381 1014.82 54.6853C1000.17 62.818 985.911 85.2495 968.504 94.9157C951.097 104.582 925.566 104.248 910.918 112.382C899.128 118.929 894.516 134.066 900.597 146.228C902.135 149.304 904.177 151.858 906.607 153.895C919.635 165.827 942.451 154.971 962.215 166.488L962.215 166.488ZM1039.19 173.564C1038.59 173.897 1037.97 174.302 1037.42 174.729C1027.45 182.323 1028.39 201.389 1039.49 217.354C1049.95 232.401 1065.68 239.266 1075.77 233.665C1076.37 233.332 1076.99 232.927 1077.54 232.5C1087.51 224.906 1086.57 205.84 1075.47 189.875C1065.03 174.875 1049.28 167.963 1039.19 173.564ZM1058.28 114.414C1050.32 124.274 1055.65 142.474 1070.15 155.103C1082.35 165.74 1097.16 169.002 1106.28 163.938C1108.03 162.966 1109.52 161.714 1110.81 160.157C1118.76 150.297 1113.43 132.097 1098.93 119.468C1086.73 108.831 1071.92 105.569 1062.8 110.632C1061.05 111.604 1059.56 112.856 1058.28 114.414Z" fill="#FFC5C5" fill-opacity="0.4"/>
<path d="M1242.88 326.467C1242.35 326.644 1241.84 326.863 1241.35 327.124L1241.43 327.292L1241.37 327.166L1241.2 327.253C1232.23 332.038 1228.9 347.438 1233.81 362.921C1238.99 379.414 1251.49 389.796 1261.69 386.154C1262.26 385.955 1262.85 385.693 1263.38 385.41C1272.35 380.626 1275.68 365.225 1270.78 349.742C1265.57 333.208 1253.07 322.825 1242.88 326.467L1242.88 326.467ZM1308.92 338.148C1307.21 338.323 1305.6 338.812 1304.05 339.639L1303.88 339.726C1295.9 344.136 1290.68 356.863 1291.69 371.373C1292.88 388.729 1302.52 402.007 1313.27 401.016C1314.98 400.841 1316.59 400.352 1318.14 399.526C1326.22 395.22 1331.54 382.385 1330.53 367.77C1329.3 350.435 1319.62 337.179 1308.92 338.148L1308.92 338.148ZM1287.41 415.9C1267.31 403.672 1259.12 399.408 1246.15 406.324C1233.17 413.24 1231.55 422.787 1228.94 447.064C1226.69 467.831 1207.69 479.591 1209.14 495.445C1209.28 498.314 1210.02 501.132 1211.32 503.856C1216.48 514.627 1229.15 518.821 1239.59 513.254C1252.57 506.338 1265.42 486.863 1280.84 478.643C1296.26 470.423 1318.67 471.108 1331.65 464.192C1342.09 458.624 1346.37 445.405 1341.21 434.634C1339.9 431.909 1338.15 429.635 1336.04 427.81C1324.78 417.134 1304.59 426.316 1287.41 415.9L1287.41 415.9ZM1219.94 408.506C1220.47 408.223 1221.02 407.876 1221.51 407.51C1230.38 400.996 1229.83 384.242 1220.32 370.054C1211.35 356.682 1197.65 350.414 1188.71 355.177C1188.18 355.459 1187.63 355.806 1187.14 356.172C1178.27 362.686 1178.82 379.44 1188.33 393.628C1197.28 406.958 1211.01 413.268 1219.94 408.506ZM1202.32 460.146C1209.45 451.611 1205.03 435.55 1192.49 424.239C1181.94 414.713 1168.98 411.621 1160.9 415.927C1159.35 416.754 1158.02 417.83 1156.88 419.178C1149.75 427.713 1154.16 443.774 1166.7 455.085C1177.26 464.611 1190.21 467.703 1198.29 463.397C1199.84 462.57 1201.17 461.494 1202.32 460.146Z" fill="#FFC5C5" fill-opacity="0.4"/>
<path d="M1265.33 121.07C1265.15 121.304 1265 121.55 1264.87 121.809L1264.95 121.856L1264.89 121.82L1264.85 121.906C1262.44 126.637 1265.58 134.19 1272.24 139.306C1279.32 144.768 1287.7 145.432 1290.96 140.823C1291.15 140.567 1291.32 140.278 1291.46 139.998C1293.87 135.267 1290.73 127.714 1284.07 122.598C1276.97 117.125 1268.59 116.46 1265.33 121.07L1265.33 121.07ZM1296.87 106.214C1296.19 106.802 1295.65 107.493 1295.24 108.31L1295.19 108.396C1293.1 112.668 1294.64 119.653 1299.36 125.524C1304.99 132.552 1313.02 135.309 1317.29 131.661C1317.97 131.074 1318.51 130.383 1318.92 129.565C1321.09 125.307 1319.56 118.247 1314.82 112.33C1309.17 105.324 1301.13 102.589 1296.87 106.214L1296.87 106.214ZM1310.69 145.758C1298.53 146.588 1293.79 147.232 1290.31 154.071C1286.83 160.91 1288.96 165.46 1295.03 176.575C1300.21 186.086 1295.6 196.797 1300.9 203.109C1301.81 204.286 1302.95 205.264 1304.31 206.032C1309.69 209.066 1316.32 207.049 1319.11 201.544C1322.59 194.705 1322.3 182.559 1326.43 174.431C1330.57 166.303 1340.3 159.867 1343.78 153.028C1346.58 147.522 1344.49 140.615 1339.11 137.58C1337.75 136.812 1336.33 136.372 1334.9 136.227C1326.95 135.064 1321.08 145.032 1310.69 145.758L1310.69 145.758ZM1279.81 162.867C1279.95 162.588 1280.08 162.275 1280.18 161.971C1282.03 156.538 1276.85 149.572 1268.61 146.39C1260.84 143.392 1253.16 144.84 1250.77 149.549C1250.63 149.829 1250.49 150.142 1250.39 150.445C1248.55 155.879 1253.73 162.844 1261.97 166.026C1269.71 169.013 1277.41 167.577 1279.81 162.867ZM1287.57 190.134C1288.08 184.362 1281.46 178.852 1272.78 177.803C1265.48 176.919 1259.05 179.492 1256.89 183.75C1256.47 184.568 1256.23 185.425 1256.14 186.343C1255.62 192.115 1262.25 197.624 1270.92 198.673C1278.23 199.558 1284.65 196.984 1286.82 192.726C1287.23 191.909 1287.48 191.052 1287.57 190.134Z" fill="#FFC5C5" fill-opacity="0.4"/>
<path d="M259.628 138.954C259.508 138.684 259.369 138.429 259.21 138.187L259.132 138.244L259.19 138.202L259.137 138.121C256.224 133.695 248.409 133.145 241.057 137.013C233.223 141.111 228.855 148.64 231.278 153.807C231.411 154.097 231.577 154.392 231.749 154.654C234.662 159.08 242.477 159.63 249.829 155.762C257.683 151.65 262.051 144.121 259.628 138.954L259.628 138.954ZM257.89 175.263C257.699 174.362 257.359 173.539 256.856 172.774L256.803 172.694C254.136 168.773 247.526 166.994 240.417 168.696C231.912 170.725 225.938 176.951 227.084 182.626C227.275 183.528 227.615 184.351 228.119 185.115C230.74 189.098 237.409 190.924 244.571 189.214C253.063 187.165 259.023 180.919 257.89 175.263L257.89 175.263ZM218.148 169.968C222.964 158.224 224.571 153.496 220.36 147.099C216.149 140.701 211.332 140.595 199.174 141.141C188.773 141.602 181.8 132.363 174.053 134.407C172.643 134.715 171.296 135.334 170.029 136.251C165.021 139.877 163.722 146.996 167.112 152.146C171.322 158.543 181.733 163.868 186.738 171.471C191.742 179.074 192.773 191.131 196.984 197.529C200.374 202.679 207.168 203.909 212.177 200.283C213.443 199.366 214.46 198.243 215.233 196.97C219.822 190.084 214.051 180.004 218.149 169.968L218.148 169.968ZM217.681 133.236C217.853 133.497 218.058 133.765 218.269 133.998C222.03 138.226 230.277 136.591 236.708 130.361C242.769 124.487 245.029 116.643 242.129 112.237C241.957 111.976 241.752 111.708 241.541 111.475C237.78 107.247 229.533 108.882 223.102 115.112C217.061 120.972 214.781 128.83 217.681 133.236ZM191.082 127.929C195.736 131.065 203.404 127.414 208.228 119.792C212.291 113.375 213.027 106.188 210.406 102.205C209.902 101.441 209.289 100.815 208.553 100.309C203.899 97.173 196.231 100.824 191.407 108.446C187.344 114.863 186.608 122.05 189.229 126.033C189.732 126.797 190.346 127.423 191.082 127.929Z" fill="#FFC5C5" fill-opacity="0.4"/>
<path d="M819.77 364.122C819.262 364.276 818.772 364.47 818.3 364.704L818.372 364.865L818.318 364.744L818.161 364.822C809.511 369.115 805.941 383.648 810.189 398.491C814.674 414.3 826.27 424.512 836.042 421.338C836.589 421.165 837.158 420.932 837.669 420.679C846.32 416.386 849.889 401.853 845.641 387.01C841.138 371.16 829.542 360.949 819.77 364.123L819.77 364.122ZM882.162 377.067C880.535 377.185 878.994 377.605 877.499 378.346L877.342 378.424C869.65 382.389 864.352 394.331 864.924 408.14C865.597 424.658 874.396 437.539 884.622 436.899C886.25 436.781 887.791 436.361 889.285 435.619C897.071 431.756 902.469 419.716 901.9 405.806C901.188 389.308 892.35 376.447 882.163 377.067L882.162 377.067ZM859.677 450.311C840.92 438.134 833.257 433.855 820.753 440.059C808.249 446.264 806.452 455.286 803.329 478.271C800.647 497.932 782.29 508.568 783.243 523.666C783.304 526.395 783.927 529.092 785.094 531.716C789.707 542.091 801.619 546.429 811.686 541.434C824.19 535.229 836.909 517.092 851.771 509.717C866.633 502.343 887.89 503.621 900.396 497.416C910.462 492.421 914.868 479.985 910.256 469.61C909.089 466.986 907.483 464.778 905.534 462.985C895.126 452.53 875.713 460.684 859.677 450.31L859.677 450.311ZM795.813 441.397C796.324 441.143 796.857 440.83 797.332 440.495C805.923 434.557 805.849 418.629 797.195 404.888C789.037 391.936 776.188 385.599 767.576 389.872C767.065 390.125 766.533 390.439 766.057 390.773C757.466 396.712 757.541 412.64 766.194 426.381C774.335 439.292 787.202 445.67 795.813 441.397ZM777.707 489.949C784.703 482.043 780.938 466.665 769.333 455.571C759.563 446.228 747.345 442.928 739.559 446.792C738.065 447.533 736.775 448.518 735.65 449.766C728.654 457.672 732.42 473.05 744.024 484.144C753.794 493.488 766.012 496.787 773.798 492.924C775.292 492.182 776.582 491.197 777.707 489.949Z" fill="#FFC5C5" fill-opacity="0.4"/>
<path d="M323.562 239.62C325.572 240.16 327.102 241.09 328.152 242.41C329.202 243.7 329.727 245.32 329.727 247.27C329.727 250.03 328.707 252.175 326.667 253.705C324.627 255.235 321.672 256 317.802 256H302.862V224.5H316.947C320.487 224.5 323.247 225.205 325.227 226.615C327.207 228.025 328.197 230.02 328.197 232.6C328.197 234.25 327.792 235.675 326.982 236.875C326.202 238.075 325.062 238.99 323.562 239.62ZM308.622 237.955H316.452C318.342 237.955 319.782 237.58 320.772 236.83C321.762 236.08 322.257 234.97 322.257 233.5C322.257 232.03 321.762 230.92 320.772 230.17C319.782 229.39 318.342 229 316.452 229H308.622V237.955ZM317.622 251.5C321.762 251.5 323.832 249.94 323.832 246.82C323.832 243.76 321.762 242.23 317.622 242.23H308.622V251.5H317.622ZM346.696 256.315C344.206 256.315 341.971 255.79 339.991 254.74C338.011 253.69 336.466 252.235 335.356 250.375C334.246 248.485 333.691 246.355 333.691 243.985C333.691 241.615 334.246 239.5 335.356 237.64C336.466 235.78 337.996 234.325 339.946 233.275C341.926 232.225 344.176 231.7 346.696 231.7C349.066 231.7 351.136 232.18 352.906 233.14C354.706 234.1 356.056 235.48 356.956 237.28L352.636 239.8C351.946 238.69 351.076 237.865 350.026 237.325C349.006 236.755 347.881 236.47 346.651 236.47C344.551 236.47 342.811 237.16 341.431 238.54C340.051 239.89 339.361 241.705 339.361 243.985C339.361 246.265 340.036 248.095 341.386 249.475C342.766 250.825 344.521 251.5 346.651 251.5C347.881 251.5 349.006 251.23 350.026 250.69C351.076 250.12 351.946 249.28 352.636 248.17L356.956 250.69C356.026 252.49 354.661 253.885 352.861 254.875C351.091 255.835 349.036 256.315 346.696 256.315ZM372.897 251.545C375.507 251.545 377.682 250.675 379.422 248.935L382.392 252.4C381.342 253.69 379.992 254.665 378.342 255.325C376.692 255.985 374.832 256.315 372.762 256.315C370.122 256.315 367.797 255.79 365.787 254.74C363.777 253.69 362.217 252.235 361.107 250.375C360.027 248.485 359.487 246.355 359.487 243.985C359.487 241.645 360.012 239.545 361.062 237.685C362.142 235.795 363.612 234.325 365.472 233.275C367.362 232.225 369.492 231.7 371.862 231.7C374.112 231.7 376.152 232.195 377.982 233.185C379.842 234.145 381.312 235.54 382.392 237.37C383.472 239.17 384.012 241.285 384.012 243.715L365.607 247.315C366.177 248.695 367.092 249.745 368.352 250.465C369.612 251.185 371.127 251.545 372.897 251.545ZM371.862 236.2C369.792 236.2 368.112 236.875 366.822 238.225C365.562 239.575 364.932 241.39 364.932 243.67V243.715L378.522 241.105C378.132 239.635 377.337 238.45 376.137 237.55C374.967 236.65 373.542 236.2 371.862 236.2ZM407.957 236.74H395.132V256H389.507V231.97H407.957V236.74ZM421.706 256.315C419.276 256.315 417.086 255.79 415.136 254.74C413.186 253.69 411.656 252.235 410.546 250.375C409.466 248.485 408.926 246.355 408.926 243.985C408.926 241.615 409.466 239.5 410.546 237.64C411.656 235.78 413.186 234.325 415.136 233.275C417.086 232.225 419.276 231.7 421.706 231.7C424.166 231.7 426.371 232.225 428.321 233.275C430.271 234.325 431.786 235.78 432.866 237.64C433.976 239.5 434.531 241.615 434.531 243.985C434.531 246.355 433.976 248.485 432.866 250.375C431.786 252.235 430.271 253.69 428.321 254.74C426.371 255.79 424.166 256.315 421.706 256.315ZM421.706 251.5C423.776 251.5 425.486 250.81 426.836 249.43C428.186 248.05 428.861 246.235 428.861 243.985C428.861 241.735 428.186 239.92 426.836 238.54C425.486 237.16 423.776 236.47 421.706 236.47C419.636 236.47 417.926 237.16 416.576 238.54C415.256 239.92 414.596 241.735 414.596 243.985C414.596 246.235 415.256 248.05 416.576 249.43C417.926 250.81 419.636 251.5 421.706 251.5ZM597.031 246.37H592.666V256H587.041V231.97H592.666V241.69H597.166L604.276 231.97H610.306L601.576 243.535L610.891 256H604.276L597.031 246.37ZM637.467 231.97V256H632.112V252.895C631.182 254.035 630.027 254.89 628.647 255.46C627.297 256.03 625.797 256.315 624.147 256.315C621.807 256.315 619.707 255.805 617.847 254.785C616.017 253.765 614.577 252.325 613.527 250.465C612.507 248.605 611.997 246.445 611.997 243.985C611.997 241.525 612.507 239.38 613.527 237.55C614.577 235.69 616.017 234.25 617.847 233.23C619.707 232.21 621.807 231.7 624.147 231.7C625.707 231.7 627.132 231.97 628.422 232.51C629.742 233.05 630.882 233.845 631.842 234.895V231.97H637.467ZM624.777 251.5C626.847 251.5 628.557 250.81 629.907 249.43C631.257 248.05 631.932 246.235 631.932 243.985C631.932 241.735 631.257 239.92 629.907 238.54C628.557 237.16 626.847 236.47 624.777 236.47C622.707 236.47 620.997 237.16 619.647 238.54C618.327 239.92 617.667 241.735 617.667 243.985C617.667 246.235 618.327 248.05 619.647 249.43C620.997 250.81 622.707 251.5 624.777 251.5ZM667.957 231.97V256H662.377V236.74H650.542V256H644.917V231.97H667.957ZM697.327 231.97V256H691.702V236.74H682.702L682.477 241.51C682.327 244.69 682.027 247.36 681.577 249.52C681.157 251.65 680.422 253.345 679.372 254.605C678.352 255.835 676.942 256.45 675.142 256.45C674.302 256.45 673.267 256.285 672.037 255.955L672.307 251.23C672.727 251.32 673.087 251.365 673.387 251.365C674.527 251.365 675.382 250.915 675.952 250.015C676.522 249.085 676.882 247.99 677.032 246.73C677.212 245.44 677.362 243.61 677.482 241.24L677.887 231.97H697.327ZM725.197 231.97V256H720.157V248.755H713.812L708.907 256H702.877L708.547 247.99C706.807 247.39 705.472 246.475 704.542 245.245C703.642 243.985 703.192 242.44 703.192 240.61C703.192 237.85 704.167 235.72 706.117 234.22C708.067 232.72 710.752 231.97 714.172 231.97H725.197ZM714.352 236.695C710.722 236.695 708.907 238.06 708.907 240.79C708.907 243.49 710.662 244.84 714.172 244.84H720.157V236.695H714.352ZM755.19 246.37H750.825V256H745.2V231.97H750.825V241.69H755.325L762.435 231.97H768.465L759.735 243.535L769.05 256H762.435L755.19 246.37ZM784.897 231.7C787.387 231.7 789.562 232.21 791.422 233.23C793.312 234.25 794.767 235.69 795.787 237.55C796.837 239.41 797.362 241.57 797.362 244.03C797.362 246.46 796.867 248.605 795.877 250.465C794.887 252.325 793.492 253.765 791.692 254.785C789.922 255.805 787.867 256.315 785.527 256.315C782.197 256.315 779.587 255.25 777.697 253.12V264.73H772.027V244.075C772.027 241.645 772.567 239.5 773.647 237.64C774.727 235.75 776.227 234.295 778.147 233.275C780.097 232.225 782.347 231.7 784.897 231.7ZM784.672 251.545C786.772 251.545 788.482 250.855 789.802 249.475C791.122 248.065 791.782 246.25 791.782 244.03C791.782 241.81 791.122 239.995 789.802 238.585C788.482 237.175 786.772 236.47 784.672 236.47C782.542 236.47 780.832 237.16 779.542 238.54C778.252 239.92 777.607 241.735 777.607 243.985C777.607 246.235 778.252 248.065 779.542 249.475C780.862 250.855 782.572 251.545 784.672 251.545ZM813.698 256.315C811.268 256.315 809.078 255.79 807.128 254.74C805.178 253.69 803.648 252.235 802.538 250.375C801.458 248.485 800.918 246.355 800.918 243.985C800.918 241.615 801.458 239.5 802.538 237.64C803.648 235.78 805.178 234.325 807.128 233.275C809.078 232.225 811.268 231.7 813.698 231.7C816.158 231.7 818.363 232.225 820.313 233.275C822.263 234.325 823.778 235.78 824.858 237.64C825.968 239.5 826.523 241.615 826.523 243.985C826.523 246.355 825.968 248.485 824.858 250.375C823.778 252.235 822.263 253.69 820.313 254.74C818.363 255.79 816.158 256.315 813.698 256.315ZM813.698 251.5C815.768 251.5 817.478 250.81 818.828 249.43C820.178 248.05 820.853 246.235 820.853 243.985C820.853 241.735 820.178 239.92 818.828 238.54C817.478 237.16 815.768 236.47 813.698 236.47C811.628 236.47 809.918 237.16 808.568 238.54C807.248 239.92 806.588 241.735 806.588 243.985C806.588 246.235 807.248 248.05 808.568 249.43C809.918 250.81 811.628 251.5 813.698 251.5ZM849.495 243.49C852.465 244.39 853.95 246.31 853.95 249.25C853.95 251.41 853.14 253.075 851.52 254.245C849.9 255.415 847.5 256 844.32 256H832.08V231.97H843.825C846.765 231.97 849.06 232.51 850.71 233.59C852.36 234.67 853.185 236.2 853.185 238.18C853.185 239.41 852.855 240.475 852.195 241.375C851.565 242.275 850.665 242.98 849.495 243.49ZM837.435 242.005H843.33C846.24 242.005 847.695 241 847.695 238.99C847.695 237.04 846.24 236.065 843.33 236.065H837.435V242.005ZM843.87 251.905C846.96 251.905 848.505 250.9 848.505 248.89C848.505 247.84 848.145 247.06 847.425 246.55C846.705 246.01 845.58 245.74 844.05 245.74H837.435V251.905H843.87ZM882.711 231.97V256H877.356V252.94C876.456 254.02 875.331 254.86 873.981 255.46C872.661 256.03 871.221 256.315 869.661 256.315C866.451 256.315 863.916 255.43 862.056 253.66C860.196 251.86 859.266 249.205 859.266 245.695V231.97H864.891V244.93C864.891 247.09 865.371 248.71 866.331 249.79C867.321 250.84 868.731 251.365 870.561 251.365C872.541 251.365 874.116 250.75 875.286 249.52C876.486 248.26 877.086 246.46 877.086 244.12V231.97H882.711ZM925.514 231.97V256H920.159V252.94C919.259 254.02 918.134 254.86 916.784 255.46C915.464 256.03 914.024 256.315 912.464 256.315C909.254 256.315 906.719 255.43 904.859 253.66C902.999 251.86 902.069 249.205 902.069 245.695V231.97H907.694V244.93C907.694 247.09 908.174 248.71 909.134 249.79C910.124 250.84 911.534 251.365 913.364 251.365C915.344 251.365 916.919 250.75 918.089 249.52C919.289 248.26 919.889 246.46 919.889 244.12V231.97H925.514ZM956.735 256V240.07L948.635 253.48H946.205L938.24 240.025V256H933.11V231.97H939.005L947.555 247L956.51 231.97H961.775L961.82 256H956.735ZM980.705 251.545C983.315 251.545 985.49 250.675 987.23 248.935L990.2 252.4C989.15 253.69 987.8 254.665 986.15 255.325C984.5 255.985 982.64 256.315 980.57 256.315C977.93 256.315 975.605 255.79 973.595 254.74C971.585 253.69 970.025 252.235 968.915 250.375C967.835 248.485 967.295 246.355 967.295 243.985C967.295 241.645 967.82 239.545 968.87 237.685C969.95 235.795 971.42 234.325 973.28 233.275C975.17 232.225 977.3 231.7 979.67 231.7C981.92 231.7 983.96 232.195 985.79 233.185C987.65 234.145 989.12 235.54 990.2 237.37C991.28 239.17 991.82 241.285 991.82 243.715L973.415 247.315C973.985 248.695 974.9 249.745 976.16 250.465C977.42 251.185 978.935 251.545 980.705 251.545ZM979.67 236.2C977.6 236.2 975.92 236.875 974.63 238.225C973.37 239.575 972.74 241.39 972.74 243.67V243.715L986.33 241.105C985.94 239.635 985.145 238.45 983.945 237.55C982.775 236.65 981.35 236.2 979.67 236.2ZM1008.65 251.545C1011.26 251.545 1013.44 250.675 1015.18 248.935L1018.15 252.4C1017.1 253.69 1015.75 254.665 1014.1 255.325C1012.45 255.985 1010.59 256.315 1008.52 256.315C1005.88 256.315 1003.55 255.79 1001.54 254.74C999.534 253.69 997.974 252.235 996.864 250.375C995.784 248.485 995.244 246.355 995.244 243.985C995.244 241.645 995.769 239.545 996.819 237.685C997.899 235.795 999.369 234.325 1001.23 233.275C1003.12 232.225 1005.25 231.7 1007.62 231.7C1009.87 231.7 1011.91 232.195 1013.74 233.185C1015.6 234.145 1017.07 235.54 1018.15 237.37C1019.23 239.17 1019.77 241.285 1019.77 243.715L1001.36 247.315C1001.93 248.695 1002.85 249.745 1004.11 250.465C1005.37 251.185 1006.88 251.545 1008.65 251.545ZM1007.62 236.2C1005.55 236.2 1003.87 236.875 1002.58 238.225C1001.32 239.575 1000.69 241.39 1000.69 243.67V243.715L1014.28 241.105C1013.89 239.635 1013.09 238.45 1011.89 237.55C1010.72 236.65 1009.3 236.2 1007.62 236.2ZM1055.59 231.7C1058.62 231.7 1061.02 232.585 1062.79 234.355C1064.56 236.095 1065.45 238.72 1065.45 242.23V256H1059.82V242.95C1059.82 240.85 1059.36 239.275 1058.43 238.225C1057.5 237.145 1056.16 236.605 1054.42 236.605C1052.53 236.605 1051.02 237.235 1049.88 238.495C1048.74 239.725 1048.17 241.495 1048.17 243.805V256H1042.54V242.95C1042.54 240.85 1042.08 239.275 1041.15 238.225C1040.22 237.145 1038.88 236.605 1037.14 236.605C1035.22 236.605 1033.69 237.22 1032.55 238.45C1031.44 239.68 1030.89 241.465 1030.89 243.805V256H1025.26V231.97H1030.62V235.03C1031.52 233.95 1032.64 233.125 1033.99 232.555C1035.34 231.985 1036.84 231.7 1038.49 231.7C1040.29 231.7 1041.88 232.045 1043.26 232.735C1044.67 233.395 1045.78 234.385 1046.59 235.705C1047.58 234.445 1048.86 233.47 1050.42 232.78C1051.98 232.06 1053.7 231.7 1055.59 231.7ZM762.411 298.49C763.911 298.91 765.066 299.6 765.876 300.56C766.716 301.49 767.136 302.615 767.136 303.935C767.136 305.405 766.641 306.71 765.651 307.85C764.661 308.96 763.296 309.83 761.556 310.46C759.816 311.09 757.836 311.405 755.616 311.405C753.756 311.405 751.941 311.195 750.171 310.775C748.401 310.325 746.796 309.695 745.356 308.885L746.976 304.7C748.146 305.36 749.466 305.87 750.936 306.23C752.406 306.59 753.876 306.77 755.346 306.77C757.236 306.77 758.706 306.485 759.756 305.915C760.836 305.315 761.376 304.505 761.376 303.485C761.376 302.555 760.956 301.835 760.116 301.325C759.306 300.815 758.151 300.56 756.651 300.56H751.971V296.78H756.201C757.611 296.78 758.706 296.54 759.486 296.06C760.296 295.58 760.701 294.905 760.701 294.035C760.701 293.165 760.221 292.475 759.261 291.965C758.301 291.455 756.981 291.2 755.301 291.2C752.901 291.2 750.366 291.785 747.696 292.955L746.256 288.815C749.406 287.345 752.586 286.61 755.796 286.61C757.836 286.61 759.666 286.895 761.286 287.465C762.906 288.005 764.166 288.785 765.066 289.805C765.996 290.795 766.461 291.935 766.461 293.225C766.461 294.395 766.101 295.445 765.381 296.375C764.661 297.275 763.671 297.98 762.411 298.49ZM772.973 286.97H778.598V296.735H790.703V286.97H796.328V311H790.703V301.505H778.598V311H772.973V286.97ZM827.267 286.97V311H821.912V307.895C820.982 309.035 819.827 309.89 818.447 310.46C817.097 311.03 815.597 311.315 813.947 311.315C811.607 311.315 809.507 310.805 807.647 309.785C805.817 308.765 804.377 307.325 803.327 305.465C802.307 303.605 801.797 301.445 801.797 298.985C801.797 296.525 802.307 294.38 803.327 292.55C804.377 290.69 805.817 289.25 807.647 288.23C809.507 287.21 811.607 286.7 813.947 286.7C815.507 286.7 816.932 286.97 818.222 287.51C819.542 288.05 820.682 288.845 821.642 289.895V286.97H827.267ZM814.577 306.5C816.647 306.5 818.357 305.81 819.707 304.43C821.057 303.05 821.732 301.235 821.732 298.985C821.732 296.735 821.057 294.92 819.707 293.54C818.357 292.16 816.647 291.47 814.577 291.47C812.507 291.47 810.797 292.16 809.447 293.54C808.127 294.92 807.467 296.735 807.467 298.985C807.467 301.235 808.127 303.05 809.447 304.43C810.797 305.81 812.507 306.5 814.577 306.5ZM855.102 286.97V311H849.477V301.685C847.167 302.795 844.752 303.35 842.232 303.35C839.142 303.35 836.772 302.645 835.122 301.235C833.472 299.795 832.647 297.605 832.647 294.665V286.97H838.272V294.305C838.272 295.835 838.722 296.975 839.622 297.725C840.522 298.475 841.797 298.85 843.447 298.85C845.547 298.85 847.557 298.4 849.477 297.5V286.97H855.102ZM874.006 306.545C876.616 306.545 878.791 305.675 880.531 303.935L883.501 307.4C882.451 308.69 881.101 309.665 879.451 310.325C877.801 310.985 875.941 311.315 873.871 311.315C871.231 311.315 868.906 310.79 866.896 309.74C864.886 308.69 863.326 307.235 862.216 305.375C861.136 303.485 860.596 301.355 860.596 298.985C860.596 296.645 861.121 294.545 862.171 292.685C863.251 290.795 864.721 289.325 866.581 288.275C868.471 287.225 870.601 286.7 872.971 286.7C875.221 286.7 877.261 287.195 879.091 288.185C880.951 289.145 882.421 290.54 883.501 292.37C884.581 294.17 885.121 296.285 885.121 298.715L866.716 302.315C867.286 303.695 868.201 304.745 869.461 305.465C870.721 306.185 872.236 306.545 874.006 306.545ZM872.971 291.2C870.901 291.2 869.221 291.875 867.931 293.225C866.671 294.575 866.041 296.39 866.041 298.67V298.715L879.631 296.105C879.241 294.635 878.446 293.45 877.246 292.55C876.076 291.65 874.651 291.2 872.971 291.2ZM890.615 286.97H896.24V296.735H908.345V286.97H913.97V311H908.345V301.505H896.24V311H890.615V286.97ZM944.279 286.97V311H938.924V307.94C938.024 309.02 936.899 309.86 935.549 310.46C934.229 311.03 932.789 311.315 931.229 311.315C928.019 311.315 925.484 310.43 923.624 308.66C921.764 306.86 920.834 304.205 920.834 300.695V286.97H926.459V299.93C926.459 302.09 926.939 303.71 927.899 304.79C928.889 305.84 930.299 306.365 932.129 306.365C934.109 306.365 935.684 305.75 936.854 304.52C938.054 303.26 938.654 301.46 938.654 299.12V286.97H944.279ZM963.215 306.545C965.825 306.545 968 305.675 969.74 303.935L972.71 307.4C971.66 308.69 970.31 309.665 968.66 310.325C967.01 310.985 965.15 311.315 963.08 311.315C960.44 311.315 958.115 310.79 956.105 309.74C954.095 308.69 952.535 307.235 951.425 305.375C950.345 303.485 949.805 301.355 949.805 298.985C949.805 296.645 950.33 294.545 951.38 292.685C952.46 290.795 953.93 289.325 955.79 288.275C957.68 287.225 959.81 286.7 962.18 286.7C964.43 286.7 966.47 287.195 968.3 288.185C970.16 289.145 971.63 290.54 972.71 292.37C973.79 294.17 974.33 296.285 974.33 298.715L955.925 302.315C956.495 303.695 957.41 304.745 958.67 305.465C959.93 306.185 961.445 306.545 963.215 306.545ZM962.18 291.2C960.11 291.2 958.43 291.875 957.14 293.225C955.88 294.575 955.25 296.39 955.25 298.67V298.715L968.84 296.105C968.45 294.635 967.655 293.45 966.455 292.55C965.285 291.65 963.86 291.2 962.18 291.2Z" fill="#212121"/>
<path d="M463.234 256.315C460.804 256.315 458.614 255.79 456.664 254.74C454.714 253.69 453.184 252.235 452.074 250.375C450.994 248.485 450.454 246.355 450.454 243.985C450.454 241.615 450.994 239.5 452.074 237.64C453.184 235.78 454.714 234.325 456.664 233.275C458.614 232.225 460.804 231.7 463.234 231.7C465.694 231.7 467.899 232.225 469.849 233.275C471.799 234.325 473.314 235.78 474.394 237.64C475.504 239.5 476.059 241.615 476.059 243.985C476.059 246.355 475.504 248.485 474.394 250.375C473.314 252.235 471.799 253.69 469.849 254.74C467.899 255.79 465.694 256.315 463.234 256.315ZM463.234 251.5C465.304 251.5 467.014 250.81 468.364 249.43C469.714 248.05 470.389 246.235 470.389 243.985C470.389 241.735 469.714 239.92 468.364 238.54C467.014 237.16 465.304 236.47 463.234 236.47C461.164 236.47 459.454 237.16 458.104 238.54C456.784 239.92 456.124 241.735 456.124 243.985C456.124 246.235 456.784 248.05 458.104 249.43C459.454 250.81 461.164 251.5 463.234 251.5ZM505.286 231.97V252.355C505.286 260.815 500.966 265.045 492.326 265.045C490.016 265.045 487.826 264.745 485.756 264.145C483.686 263.575 481.976 262.735 480.626 261.625L483.146 257.395C484.196 258.265 485.516 258.955 487.106 259.465C488.726 260.005 490.361 260.275 492.011 260.275C494.651 260.275 496.586 259.675 497.816 258.475C499.046 257.275 499.661 255.445 499.661 252.985V251.725C498.701 252.775 497.531 253.57 496.151 254.11C494.771 254.65 493.256 254.92 491.606 254.92C489.326 254.92 487.256 254.44 485.396 253.48C483.566 252.49 482.111 251.11 481.031 249.34C479.981 247.57 479.456 245.545 479.456 243.265C479.456 240.985 479.981 238.975 481.031 237.235C482.111 235.465 483.566 234.1 485.396 233.14C487.256 232.18 489.326 231.7 491.606 231.7C493.346 231.7 494.921 231.985 496.331 232.555C497.771 233.125 498.971 233.995 499.931 235.165V231.97H505.286ZM492.461 250.15C494.591 250.15 496.331 249.52 497.681 248.26C499.061 246.97 499.751 245.305 499.751 243.265C499.751 241.255 499.061 239.62 497.681 238.36C496.331 237.1 494.591 236.47 492.461 236.47C490.301 236.47 488.531 237.1 487.151 238.36C485.801 239.62 485.126 241.255 485.126 243.265C485.126 245.305 485.801 246.97 487.151 248.26C488.531 249.52 490.301 250.15 492.461 250.15ZM512.861 231.97H518.486V241.735H530.591V231.97H536.216V256H530.591V246.505H518.486V256H512.861V231.97ZM567.155 231.97V256H561.8V252.895C560.87 254.035 559.715 254.89 558.335 255.46C556.985 256.03 555.485 256.315 553.835 256.315C551.495 256.315 549.395 255.805 547.535 254.785C545.705 253.765 544.265 252.325 543.215 250.465C542.195 248.605 541.685 246.445 541.685 243.985C541.685 241.525 542.195 239.38 543.215 237.55C544.265 235.69 545.705 234.25 547.535 233.23C549.395 232.21 551.495 231.7 553.835 231.7C555.395 231.7 556.82 231.97 558.11 232.51C559.43 233.05 560.57 233.845 561.53 234.895V231.97H567.155ZM554.465 251.5C556.535 251.5 558.245 250.81 559.595 249.43C560.945 248.05 561.62 246.235 561.62 243.985C561.62 241.735 560.945 239.92 559.595 238.54C558.245 237.16 556.535 236.47 554.465 236.47C552.395 236.47 550.685 237.16 549.335 238.54C548.015 239.92 547.355 241.735 547.355 243.985C547.355 246.235 548.015 248.05 549.335 249.43C550.685 250.81 552.395 251.5 554.465 251.5ZM404.726 301.37H400.361V311H394.736V286.97H400.361V296.69H404.861L411.971 286.97H418.001L409.271 298.535L418.586 311H411.971L404.726 301.37ZM432.472 311.315C430.042 311.315 427.852 310.79 425.902 309.74C423.952 308.69 422.422 307.235 421.312 305.375C420.232 303.485 419.692 301.355 419.692 298.985C419.692 296.615 420.232 294.5 421.312 292.64C422.422 290.78 423.952 289.325 425.902 288.275C427.852 287.225 430.042 286.7 432.472 286.7C434.932 286.7 437.137 287.225 439.087 288.275C441.037 289.325 442.552 290.78 443.632 292.64C444.742 294.5 445.297 296.615 445.297 298.985C445.297 301.355 444.742 303.485 443.632 305.375C442.552 307.235 441.037 308.69 439.087 309.74C437.137 310.79 434.932 311.315 432.472 311.315ZM432.472 306.5C434.542 306.5 436.252 305.81 437.602 304.43C438.952 303.05 439.627 301.235 439.627 298.985C439.627 296.735 438.952 294.92 437.602 293.54C436.252 292.16 434.542 291.47 432.472 291.47C430.402 291.47 428.692 292.16 427.342 293.54C426.022 294.92 425.362 296.735 425.362 298.985C425.362 301.235 426.022 303.05 427.342 304.43C428.692 305.81 430.402 306.5 432.472 306.5ZM472.371 286.97V311H466.746V291.74H457.746L457.521 296.51C457.371 299.69 457.071 302.36 456.621 304.52C456.201 306.65 455.466 308.345 454.416 309.605C453.396 310.835 451.986 311.45 450.186 311.45C449.346 311.45 448.311 311.285 447.081 310.955L447.351 306.23C447.771 306.32 448.131 306.365 448.431 306.365C449.571 306.365 450.426 305.915 450.996 305.015C451.566 304.085 451.926 302.99 452.076 301.73C452.256 300.44 452.406 298.61 452.526 296.24L452.931 286.97H472.371ZM490.656 311.315C488.226 311.315 486.036 310.79 484.086 309.74C482.136 308.69 480.606 307.235 479.496 305.375C478.416 303.485 477.876 301.355 477.876 298.985C477.876 296.615 478.416 294.5 479.496 292.64C480.606 290.78 482.136 289.325 484.086 288.275C486.036 287.225 488.226 286.7 490.656 286.7C493.116 286.7 495.321 287.225 497.271 288.275C499.221 289.325 500.736 290.78 501.816 292.64C502.926 294.5 503.481 296.615 503.481 298.985C503.481 301.355 502.926 303.485 501.816 305.375C500.736 307.235 499.221 308.69 497.271 309.74C495.321 310.79 493.116 311.315 490.656 311.315ZM490.656 306.5C492.726 306.5 494.436 305.81 495.786 304.43C497.136 303.05 497.811 301.235 497.811 298.985C497.811 296.735 497.136 294.92 495.786 293.54C494.436 292.16 492.726 291.47 490.656 291.47C488.586 291.47 486.876 292.16 485.526 293.54C484.206 294.92 483.546 296.735 483.546 298.985C483.546 301.235 484.206 303.05 485.526 304.43C486.876 305.81 488.586 306.5 490.656 306.5ZM519.973 311.315C517.483 311.315 515.248 310.79 513.268 309.74C511.288 308.69 509.743 307.235 508.633 305.375C507.523 303.485 506.968 301.355 506.968 298.985C506.968 296.615 507.523 294.5 508.633 292.64C509.743 290.78 511.273 289.325 513.223 288.275C515.203 287.225 517.453 286.7 519.973 286.7C522.343 286.7 524.413 287.18 526.183 288.14C527.983 289.1 529.333 290.48 530.233 292.28L525.913 294.8C525.223 293.69 524.353 292.865 523.303 292.325C522.283 291.755 521.158 291.47 519.928 291.47C517.828 291.47 516.088 292.16 514.708 293.54C513.328 294.89 512.638 296.705 512.638 298.985C512.638 301.265 513.313 303.095 514.663 304.475C516.043 305.825 517.798 306.5 519.928 306.5C521.158 306.5 522.283 306.23 523.303 305.69C524.353 305.12 525.223 304.28 525.913 303.17L530.233 305.69C529.303 307.49 527.938 308.885 526.138 309.875C524.368 310.835 522.313 311.315 519.973 311.315ZM545.769 311.315C543.279 311.315 541.044 310.79 539.064 309.74C537.084 308.69 535.539 307.235 534.429 305.375C533.319 303.485 532.764 301.355 532.764 298.985C532.764 296.615 533.319 294.5 534.429 292.64C535.539 290.78 537.069 289.325 539.019 288.275C540.999 287.225 543.249 286.7 545.769 286.7C548.139 286.7 550.209 287.18 551.979 288.14C553.779 289.1 555.129 290.48 556.029 292.28L551.709 294.8C551.019 293.69 550.149 292.865 549.099 292.325C548.079 291.755 546.954 291.47 545.724 291.47C543.624 291.47 541.884 292.16 540.504 293.54C539.124 294.89 538.434 296.705 538.434 298.985C538.434 301.265 539.109 303.095 540.459 304.475C541.839 305.825 543.594 306.5 545.724 306.5C546.954 306.5 548.079 306.23 549.099 305.69C550.149 305.12 551.019 304.28 551.709 303.17L556.029 305.69C555.099 307.49 553.734 308.885 551.934 309.875C550.164 310.835 548.109 311.315 545.769 311.315ZM584.03 286.97V311H578.675V307.895C577.745 309.035 576.59 309.89 575.21 310.46C573.86 311.03 572.36 311.315 570.71 311.315C568.37 311.315 566.27 310.805 564.41 309.785C562.58 308.765 561.14 307.325 560.09 305.465C559.07 303.605 558.56 301.445 558.56 298.985C558.56 296.525 559.07 294.38 560.09 292.55C561.14 290.69 562.58 289.25 564.41 288.23C566.27 287.21 568.37 286.7 570.71 286.7C572.27 286.7 573.695 286.97 574.985 287.51C576.305 288.05 577.445 288.845 578.405 289.895V286.97H584.03ZM571.34 306.5C573.41 306.5 575.12 305.81 576.47 304.43C577.82 303.05 578.495 301.235 578.495 298.985C578.495 296.735 577.82 294.92 576.47 293.54C575.12 292.16 573.41 291.47 571.34 291.47C569.27 291.47 567.56 292.16 566.21 293.54C564.89 294.92 564.23 296.735 564.23 298.985C564.23 301.235 564.89 303.05 566.21 304.43C567.56 305.81 569.27 306.5 571.34 306.5ZM613.259 286.97V311H607.634V291.74H598.634L598.409 296.51C598.259 299.69 597.959 302.36 597.509 304.52C597.089 306.65 596.354 308.345 595.304 309.605C594.284 310.835 592.874 311.45 591.074 311.45C590.234 311.45 589.199 311.285 587.969 310.955L588.239 306.23C588.659 306.32 589.019 306.365 589.319 306.365C590.459 306.365 591.314 305.915 591.884 305.015C592.454 304.085 592.814 302.99 592.964 301.73C593.144 300.44 593.294 298.61 593.414 296.24L593.819 286.97H613.259ZM631.32 311.63C627.75 311.63 625.02 310.79 623.13 309.11C621.24 307.4 620.295 304.97 620.295 301.82V286.97H625.875V295.61C626.655 294.98 627.675 294.485 628.935 294.125C630.225 293.765 631.62 293.585 633.12 293.585C636.12 293.585 638.46 294.335 640.14 295.835C641.82 297.335 642.66 299.465 642.66 302.225C642.66 305.195 641.655 307.505 639.645 309.155C637.635 310.805 634.86 311.63 631.32 311.63ZM631.365 307.49C633.075 307.49 634.425 307.025 635.415 306.095C636.405 305.165 636.9 303.92 636.9 302.36C636.9 300.86 636.42 299.69 635.46 298.85C634.53 297.98 633.21 297.545 631.5 297.545C630.21 297.545 629.07 297.785 628.08 298.265C627.12 298.745 626.385 299.42 625.875 300.29V302.315C625.875 303.905 626.37 305.165 627.36 306.095C628.35 307.025 629.685 307.49 631.365 307.49ZM647.685 286.97H653.31V296.735H665.415V286.97H671.04V311H665.415V301.505H653.31V311H647.685V286.97ZM689.289 311.315C686.859 311.315 684.669 310.79 682.719 309.74C680.769 308.69 679.239 307.235 678.129 305.375C677.049 303.485 676.509 301.355 676.509 298.985C676.509 296.615 677.049 294.5 678.129 292.64C679.239 290.78 680.769 289.325 682.719 288.275C684.669 287.225 686.859 286.7 689.289 286.7C691.749 286.7 693.954 287.225 695.904 288.275C697.854 289.325 699.369 290.78 700.449 292.64C701.559 294.5 702.114 296.615 702.114 298.985C702.114 301.355 701.559 303.485 700.449 305.375C699.369 307.235 697.854 308.69 695.904 309.74C693.954 310.79 691.749 311.315 689.289 311.315ZM689.289 306.5C691.359 306.5 693.069 305.81 694.419 304.43C695.769 303.05 696.444 301.235 696.444 298.985C696.444 296.735 695.769 294.92 694.419 293.54C693.069 292.16 691.359 291.47 689.289 291.47C687.219 291.47 685.509 292.16 684.159 293.54C682.839 294.92 682.179 296.735 682.179 298.985C682.179 301.235 682.839 303.05 684.159 304.43C685.509 305.81 687.219 306.5 689.289 306.5ZM719.011 306.545C721.621 306.545 723.796 305.675 725.536 303.935L728.506 307.4C727.456 308.69 726.106 309.665 724.456 310.325C722.806 310.985 720.946 311.315 718.876 311.315C716.236 311.315 713.911 310.79 711.901 309.74C709.891 308.69 708.331 307.235 707.221 305.375C706.141 303.485 705.601 301.355 705.601 298.985C705.601 296.645 706.126 294.545 707.176 292.685C708.256 290.795 709.726 289.325 711.586 288.275C713.476 287.225 715.606 286.7 717.976 286.7C720.226 286.7 722.266 287.195 724.096 288.185C725.956 289.145 727.426 290.54 728.506 292.37C729.586 294.17 730.126 296.285 730.126 298.715L711.721 302.315C712.291 303.695 713.206 304.745 714.466 305.465C715.726 306.185 717.241 306.545 719.011 306.545ZM717.976 291.2C715.906 291.2 714.226 291.875 712.936 293.225C711.676 294.575 711.046 296.39 711.046 298.67V298.715L724.636 296.105C724.246 294.635 723.451 293.45 722.251 292.55C721.081 291.65 719.656 291.2 717.976 291.2Z" fill="#FF3B3B"/>
</svg>
